M48
; DRILL file {KiCad 9.0.7} date 2026-03-15T09:44:22+0800
; FORMAT={-:-/ absolute / metric / decimal}
; #@! TF.CreationDate,2026-03-15T09:44:22+08:00
; #@! TF.GenerationSoftware,Kicad,Pcbnew,9.0.7
; #@! TF.FileFunction,Plated,1,2,PTH
FMAT,2
METRIC
; #@! TA.AperFunction,Plated,PTH,ViaDrill
T1C0.300
; #@! TA.AperFunction,Plated,PTH,ComponentDrill
T2C0.600
; #@! TA.AperFunction,Plated,PTH,ComponentDrill
T3C1.000
; #@! TA.AperFunction,Plated,PTH,ComponentDrill
T4C1.200
; #@! TA.AperFunction,Plated,PTH,ComponentDrill
T5C1.600
%
G90
G05
T1
X39.95Y-77.05
X42.15Y-77.05
X43.34Y-153.28
X43.52Y-96.62
X47.46Y-96.57
X47.71Y-154.26
X48.42Y-116.05
X50.13Y-134.7
X51.79Y-115.98
X52.59Y-134.97
X59.03Y-77.14
X61.29Y-77.17
X64.16Y-96.05
X66.49Y-153.62
X69.36Y-96.1
X70.46Y-154.25
X71.63Y-116.38
X72.19Y-135.51
X75.15Y-135.63
X75.9Y-116.39
X78.09Y-77.08
X80.53Y-77.02
X81.07Y-96.13
X86.7Y-96.29
X87.33Y-153.82
X89.7Y-116.19
X90.04Y-154.06
X91.72Y-135.09
X93.26Y-116.33
X95.46Y-135.25
X96.78Y-77.22
X99.34Y-96.45
X99.58Y-77.15
X106.7Y-154.0
X107.04Y-96.24
X107.42Y-116.35
X109.07Y-153.62
X110.66Y-116.43
X110.88Y-134.9
X113.91Y-135.0
X115.79Y-76.96
X118.29Y-76.93
X119.36Y-96.61
X122.947Y-42.652
X125.71Y-154.33
X125.89Y-25.11
X127.22Y-96.61
X127.23Y-116.21
X128.19Y-154.33
X129.64Y-52.0
X129.93Y-135.25
X132.09Y-116.21
X132.95Y-135.41
X134.1Y-50.66
X134.208Y-49.281
X134.31Y-48.081
X134.735Y-49.882
X134.8Y-51.18
X134.87Y-48.681
X135.06Y-77.12
X136.1Y-45.21
X136.154Y-48.681
X136.18Y-42.13
X136.55Y-44.26
X136.759Y-45.81
X137.505Y-43.282
X137.508Y-44.134
X137.63Y-77.16
X137.92Y-52.3
X138.27Y-42.35
X138.386Y-43.314
X138.9Y-52.7
X139.18Y-42.32
X139.996Y-51.736
X140.134Y-53.264
X140.39Y-96.81
X145.25Y-38.07
X145.57Y-96.46
X146.23Y-52.04
X146.442Y-40.103
X147.14Y-37.94
X147.42Y-52.22
X148.17Y-154.17
X148.474Y-39.624
X148.495Y-40.452
X148.75Y-116.45
X148.78Y-135.33
X150.41Y-27.81
X151.57Y-135.33
X152.302Y-46.61
X152.42Y-54.4
X152.5Y-153.99
X152.94Y-116.3
X153.062Y-53.923
X153.36Y-40.34
X153.859Y-47.386
X153.88Y-28.84
X153.885Y-45.048
X153.96Y-46.57
X154.04Y-50.14
X154.06Y-53.98
X154.069Y-49.321
X154.07Y-77.03
X154.167Y-45.797
X154.7Y-22.12
X154.949Y-49.351
X155.28Y-25.63
X155.85Y-28.71
X156.02Y-35.189
X156.28Y-76.97
X156.31Y-23.97
X161.43Y-97.14
X161.67Y-37.42
X162.67Y-23.39
X163.98Y-23.5
X164.75Y-116.41
X165.52Y-97.32
X166.41Y-30.79
X166.82Y-33.89
X167.14Y-52.03
X167.34Y-115.56
X167.59Y-154.56
X168.54Y-135.22
X169.95Y-30.61
X171.43Y-135.46
X171.43Y-153.56
X173.34Y-77.02
X175.51Y-77.02
X177.81Y-25.25
X179.26Y-97.3
X184.97Y-96.43
X185.53Y-154.2
X185.57Y-25.75
X186.24Y-115.61
X187.37Y-135.26
X189.62Y-135.22
X189.78Y-153.83
X190.49Y-115.75
X192.32Y-77.02
X194.99Y-76.98
X198.25Y-97.19
X203.32Y-97.21
X203.74Y-24.58
X204.16Y-153.6
X204.23Y-47.46
X205.34Y-134.23
X205.53Y-115.76
X208.01Y-135.58
X209.04Y-153.6
X209.53Y-115.7
X211.07Y-77.17
X212.75Y-30.38
X213.68Y-77.05
X218.4Y-96.99
X223.29Y-96.27
X224.13Y-115.73
X224.27Y-134.01
X225.64Y-153.55
X226.45Y-135.39
X228.14Y-115.73
X230.4Y-77.15
X231.53Y-153.35
X232.65Y-77.15
X233.03Y-96.91
X238.51Y-96.8
X240.34Y-154.11
X242.37Y-115.49
X244.28Y-134.26
X245.93Y-135.5
X246.4Y-115.64
X247.69Y-154.05
X248.75Y-172.82
X249.5Y-76.97
X251.53Y-76.94
X252.29Y-173.62
X255.78Y-96.88
X259.09Y-115.49
X260.36Y-96.65
X261.18Y-154.14
X262.55Y-115.34
X263.68Y-134.19
X265.98Y-153.89
X266.08Y-134.91
X268.14Y-173.42
X268.67Y-76.97
X270.55Y-76.97
X270.75Y-97.37
X272.51Y-174.31
X278.15Y-97.12
X281.45Y-115.41
X282.59Y-134.68
X285.6Y-135.15
X285.82Y-115.44
X285.85Y-173.65
X287.9Y-77.08
X289.61Y-77.11
X290.02Y-174.0
T3
X268.845Y-43.87
X268.845Y-46.41
X268.845Y-48.95
X268.845Y-51.49
T4
X142.97Y-32.25
X179.97Y-32.25
T5
X139.16Y-27.8
X146.78Y-28.435
X176.16Y-27.8
X183.78Y-28.435
T2
G00X116.06Y-24.93
M15
G01X116.06Y-23.23
M16
G05
G00X128.86Y-24.93
M15
G01X128.86Y-23.23
M16
G05
G00X157.15Y-16.96
M15
G01X157.15Y-16.36
M16
G05
G00X157.15Y-21.39
M15
G01X157.15Y-20.29
M16
G05
G00X165.79Y-16.96
M15
G01X165.79Y-16.36
M16
G05
G00X165.79Y-21.39
M15
G01X165.79Y-20.29
M16
G05
G00X194.08Y-24.93
M15
G01X194.08Y-23.23
M16
G05
G00X206.88Y-24.93
M15
G01X206.88Y-23.23
M16
G05
M30
