M48
; DRILL file {KiCad 9.0.7} date 2026-03-15T09:44:22+0800
; FORMAT={-:-/ absolute / metric / decimal}
; #@! TF.CreationDate,2026-03-15T09:44:22+08:00
; #@! TF.GenerationSoftware,Kicad,Pcbnew,9.0.7
; #@! TF.FileFunction,NonPlated,1,2,NPTH
FMAT,2
METRIC
; #@! TA.AperFunction,NonPlated,NPTH,ComponentDrill
T1C0.650
; #@! TA.AperFunction,NonPlated,NPTH,ComponentDrill
T2C1.600
; #@! TA.AperFunction,NonPlated,NPTH,ComponentDrill
T3C1.750
; #@! TA.AperFunction,NonPlated,NPTH,ComponentDrill
T4C3.050
; #@! TA.AperFunction,NonPlated,NPTH,ComponentDrill
T5C4.000
%
G90
G05
T1
X158.58Y-20.31
X164.36Y-20.31
T2
X139.16Y-18.91
X146.78Y-23.99
X176.16Y-18.91
X183.78Y-23.99
T3
X23.94Y-69.3
X23.94Y-88.35
X23.94Y-164.55
X26.321Y-145.5
X28.702Y-107.4
X31.083Y-126.45
X34.1Y-69.3
X34.1Y-88.35
X34.1Y-164.55
X36.481Y-145.5
X38.862Y-107.4
X41.243Y-126.45
X42.99Y-69.3
X42.99Y-88.35
X42.99Y-164.55
X50.134Y-145.5
X52.514Y-107.4
X53.15Y-69.3
X53.15Y-88.35
X53.15Y-164.55
X57.277Y-126.45
X60.294Y-145.5
X62.04Y-69.3
X62.04Y-88.35
X62.04Y-164.55
X62.674Y-107.4
X67.437Y-126.45
X71.564Y-107.4
X71.566Y-145.5
X72.2Y-69.3
X72.2Y-88.35
X72.2Y-164.55
X76.327Y-126.45
X81.09Y-69.3
X81.09Y-88.35
X81.09Y-164.55
X81.724Y-107.4
X81.726Y-145.5
X86.487Y-126.45
X90.614Y-107.4
X90.616Y-145.5
X91.25Y-69.3
X91.25Y-88.35
X91.25Y-164.55
X95.377Y-126.45
X100.14Y-69.3
X100.14Y-88.35
X100.774Y-107.4
X100.776Y-145.5
X104.903Y-164.55
X105.537Y-126.45
X109.664Y-107.4
X109.666Y-145.5
X110.3Y-69.3
X110.3Y-88.35
X114.427Y-126.45
X115.063Y-164.55
X119.19Y-69.3
X119.19Y-88.35
X119.824Y-107.4
X119.826Y-145.5
X124.587Y-126.45
X128.714Y-107.4
X128.716Y-145.5
X129.35Y-69.3
X129.35Y-88.35
X133.477Y-126.45
X133.478Y-164.55
X138.24Y-69.3
X138.24Y-88.35
X138.874Y-107.4
X138.876Y-145.5
X143.637Y-126.45
X143.638Y-164.55
X147.764Y-107.4
X147.766Y-145.5
X148.4Y-69.3
X148.4Y-88.35
X152.527Y-126.45
X157.29Y-69.3
X157.29Y-88.35
X157.924Y-107.4
X157.926Y-145.5
X162.054Y-164.55
X162.687Y-126.45
X166.814Y-107.4
X166.816Y-145.5
X167.45Y-69.3
X167.45Y-88.35
X171.577Y-126.45
X172.214Y-164.55
X176.34Y-69.3
X176.34Y-88.35
X176.974Y-107.4
X176.976Y-145.5
X181.737Y-126.45
X185.864Y-107.4
X185.866Y-145.5
X186.5Y-69.3
X186.5Y-88.35
X190.627Y-126.45
X190.628Y-164.55
X195.39Y-69.3
X195.39Y-88.35
X196.024Y-107.4
X196.026Y-145.5
X200.787Y-126.45
X200.788Y-164.55
X204.804Y-107.4
X204.916Y-145.5
X205.55Y-69.3
X205.55Y-88.35
X209.677Y-126.45
X214.44Y-69.3
X214.44Y-88.35
X214.441Y-164.55
X214.964Y-107.4
X215.076Y-145.5
X219.837Y-126.45
X223.964Y-107.4
X223.966Y-145.5
X224.6Y-69.3
X224.6Y-88.35
X224.601Y-164.55
X228.727Y-126.45
X233.49Y-69.3
X233.49Y-88.35
X233.491Y-164.55
X234.124Y-107.4
X234.126Y-145.5
X238.887Y-126.45
X243.014Y-107.4
X243.016Y-145.5
X243.65Y-69.3
X243.65Y-88.35
X243.651Y-164.55
X247.777Y-126.45
X252.54Y-69.3
X252.54Y-88.35
X252.541Y-164.55
X252.541Y-183.6
X253.174Y-107.4
X253.176Y-145.5
X257.937Y-126.45
X262.064Y-107.4
X262.066Y-145.5
X262.7Y-69.3
X262.7Y-88.35
X262.701Y-164.55
X262.701Y-183.6
X266.827Y-126.45
X271.59Y-69.3
X271.59Y-88.35
X271.591Y-164.55
X271.591Y-183.6
X272.224Y-107.4
X272.226Y-145.5
X276.987Y-126.45
X281.75Y-69.3
X281.75Y-88.35
X281.751Y-164.55
X281.751Y-183.6
X285.878Y-107.4
X285.879Y-145.5
X288.258Y-126.45
X290.64Y-69.3
X290.64Y-88.35
X290.641Y-164.55
X290.641Y-183.6
X296.038Y-107.4
X296.039Y-145.5
X298.418Y-126.45
X300.8Y-69.3
X300.8Y-88.35
X300.801Y-164.55
X300.801Y-183.6
T4
X25.21Y-66.76
X25.21Y-85.81
X25.21Y-162.01
X27.591Y-142.96
X29.972Y-104.86
X31.56Y-64.22
X31.56Y-83.27
X31.56Y-159.47
X32.353Y-123.91
X33.941Y-140.42
X36.322Y-102.32
X38.703Y-121.37
X44.26Y-66.76
X44.26Y-85.81
X44.26Y-162.01
X50.61Y-64.22
X50.61Y-83.27
X50.61Y-159.47
X51.404Y-142.96
X53.784Y-104.86
X57.754Y-140.42
X58.547Y-123.91
X60.134Y-102.32
X63.31Y-66.76
X63.31Y-85.81
X63.31Y-162.01
X64.897Y-121.37
X69.66Y-64.22
X69.66Y-83.27
X69.66Y-159.47
X72.834Y-104.86
X72.836Y-142.96
X77.597Y-123.91
X79.184Y-102.32
X79.186Y-140.42
X82.36Y-66.76
X82.36Y-85.81
X82.36Y-162.01
X83.947Y-121.37
X88.71Y-64.22
X88.71Y-83.27
X88.71Y-159.47
X91.884Y-104.86
X91.886Y-142.96
X96.647Y-123.91
X98.234Y-102.32
X98.236Y-140.42
X101.41Y-66.76
X101.41Y-85.81
X102.997Y-121.37
X106.173Y-162.01
X107.76Y-64.22
X107.76Y-83.27
X110.934Y-104.86
X110.936Y-142.96
X112.523Y-159.47
X115.697Y-123.91
X117.284Y-102.32
X117.286Y-140.42
X120.46Y-66.76
X120.46Y-85.81
X122.047Y-121.37
X126.81Y-64.22
X126.81Y-83.27
X129.984Y-104.86
X129.986Y-142.96
X134.747Y-123.91
X134.748Y-162.01
X136.334Y-102.32
X136.336Y-140.42
X139.51Y-66.76
X139.51Y-85.81
X141.097Y-121.37
X141.098Y-159.47
X145.86Y-64.22
X145.86Y-83.27
X149.034Y-104.86
X149.036Y-142.96
X153.797Y-123.91
X155.384Y-102.32
X155.386Y-140.42
X158.56Y-66.76
X158.56Y-85.81
X160.147Y-121.37
X163.324Y-162.01
X164.91Y-64.22
X164.91Y-83.27
X168.084Y-104.86
X168.086Y-142.96
X169.674Y-159.47
X172.847Y-123.91
X174.434Y-102.32
X174.436Y-140.42
X177.61Y-66.76
X177.61Y-85.81
X179.197Y-121.37
X183.96Y-64.22
X183.96Y-83.27
X187.134Y-104.86
X187.136Y-142.96
X191.897Y-123.91
X191.898Y-162.01
X193.484Y-102.32
X193.486Y-140.42
X196.66Y-66.76
X196.66Y-85.81
X198.247Y-121.37
X198.248Y-159.47
X203.01Y-64.22
X203.01Y-83.27
X206.074Y-104.86
X206.186Y-142.96
X210.947Y-123.91
X212.424Y-102.32
X212.536Y-140.42
X215.71Y-66.76
X215.71Y-85.81
X215.711Y-162.01
X217.297Y-121.37
X222.06Y-64.22
X222.06Y-83.27
X222.061Y-159.47
X225.234Y-104.86
X225.236Y-142.96
X229.997Y-123.91
X231.584Y-102.32
X231.586Y-140.42
X234.76Y-66.76
X234.76Y-85.81
X234.761Y-162.01
X236.347Y-121.37
X241.11Y-64.22
X241.11Y-83.27
X241.111Y-159.47
X244.284Y-104.86
X244.286Y-142.96
X249.047Y-123.91
X250.634Y-102.32
X250.636Y-140.42
X253.81Y-66.76
X253.81Y-85.81
X253.811Y-162.01
X253.811Y-181.06
X255.397Y-121.37
X260.16Y-64.22
X260.16Y-83.27
X260.161Y-159.47
X260.161Y-178.52
X263.334Y-104.86
X263.336Y-142.96
X268.097Y-123.91
X269.684Y-102.32
X269.686Y-140.42
X272.86Y-66.76
X272.86Y-85.81
X272.861Y-162.01
X272.861Y-181.06
X274.447Y-121.37
X279.21Y-64.22
X279.21Y-83.27
X279.211Y-159.47
X279.211Y-178.52
X287.148Y-104.86
X287.149Y-142.96
X289.528Y-123.91
X291.91Y-66.76
X291.91Y-85.81
X291.911Y-162.01
X291.911Y-181.06
X293.498Y-102.32
X293.499Y-140.42
X295.878Y-121.37
X298.26Y-64.22
X298.26Y-83.27
X298.261Y-159.47
X298.261Y-178.52
T5
X29.02Y-69.3
X29.02Y-88.35
X29.02Y-164.55
X31.401Y-145.5
X33.782Y-107.4
X36.163Y-126.45
X48.07Y-69.3
X48.07Y-88.35
X48.07Y-164.55
X55.214Y-145.5
X57.594Y-107.4
X62.357Y-126.45
X67.12Y-69.3
X67.12Y-88.35
X67.12Y-164.55
X76.644Y-107.4
X76.646Y-145.5
X81.407Y-126.45
X86.17Y-69.3
X86.17Y-88.35
X86.17Y-164.55
X95.694Y-107.4
X95.696Y-145.5
X100.457Y-126.45
X105.22Y-69.3
X105.22Y-88.35
X109.983Y-164.55
X114.744Y-107.4
X114.746Y-145.5
X119.507Y-126.45
X124.27Y-69.3
X124.27Y-88.35
X133.794Y-107.4
X133.796Y-145.5
X138.557Y-126.45
X138.558Y-164.55
X143.32Y-69.3
X143.32Y-88.35
X152.844Y-107.4
X152.846Y-145.5
X157.607Y-126.45
X162.37Y-69.3
X162.37Y-88.35
X167.134Y-164.55
X171.894Y-107.4
X171.896Y-145.5
X176.657Y-126.45
X181.42Y-69.3
X181.42Y-88.35
X190.944Y-107.4
X190.946Y-145.5
X195.707Y-126.45
X195.708Y-164.55
X200.47Y-69.3
X200.47Y-88.35
X209.884Y-107.4
X209.996Y-145.5
X214.757Y-126.45
X219.52Y-69.3
X219.52Y-88.35
X219.521Y-164.55
X229.044Y-107.4
X229.046Y-145.5
X233.807Y-126.45
X238.57Y-69.3
X238.57Y-88.35
X238.571Y-164.55
X248.094Y-107.4
X248.096Y-145.5
X252.857Y-126.45
X257.62Y-69.3
X257.62Y-88.35
X257.621Y-164.55
X257.621Y-183.6
X267.144Y-107.4
X267.146Y-145.5
X271.907Y-126.45
X276.67Y-69.3
X276.67Y-88.35
X276.671Y-164.55
X276.671Y-183.6
X290.958Y-107.4
X290.959Y-145.5
X293.338Y-126.45
X295.72Y-69.3
X295.72Y-88.35
X295.721Y-164.55
X295.721Y-183.6
M30
