%TF.GenerationSoftware,KiCad,Pcbnew,9.0.7*%
%TF.CreationDate,2026-03-15T09:44:17+08:00*%
%TF.ProjectId,Modulus,4d6f6475-6c75-4732-9e6b-696361645f70,rev?*%
%TF.SameCoordinates,Original*%
%TF.FileFunction,Soldermask,Top*%
%TF.FilePolarity,Negative*%
%FSLAX46Y46*%
G04 Gerber Fmt 4.6, Leading zero omitted, Abs format (unit mm)*
G04 Created by KiCad (PCBNEW 9.0.7) date 2026-03-15 09:44:17*
%MOMM*%
%LPD*%
G01*
G04 APERTURE LIST*
G04 Aperture macros list*
%AMRoundRect*
0 Rectangle with rounded corners*
0 $1 Rounding radius*
0 $2 $3 $4 $5 $6 $7 $8 $9 X,Y pos of 4 corners*
0 Add a 4 corners polygon primitive as box body*
4,1,4,$2,$3,$4,$5,$6,$7,$8,$9,$2,$3,0*
0 Add four circle primitives for the rounded corners*
1,1,$1+$1,$2,$3*
1,1,$1+$1,$4,$5*
1,1,$1+$1,$6,$7*
1,1,$1+$1,$8,$9*
0 Add four rect primitives between the rounded corners*
20,1,$1+$1,$2,$3,$4,$5,0*
20,1,$1+$1,$4,$5,$6,$7,0*
20,1,$1+$1,$6,$7,$8,$9,0*
20,1,$1+$1,$8,$9,$2,$3,0*%
G04 Aperture macros list end*
%ADD10RoundRect,0.375000X-0.375000X0.625000X-0.375000X-0.625000X0.375000X-0.625000X0.375000X0.625000X0*%
%ADD11RoundRect,0.500000X-1.400000X0.500000X-1.400000X-0.500000X1.400000X-0.500000X1.400000X0.500000X0*%
%ADD12RoundRect,0.102000X0.550000X0.500000X-0.550000X0.500000X-0.550000X-0.500000X0.550000X-0.500000X0*%
%ADD13RoundRect,0.250000X0.312500X0.625000X-0.312500X0.625000X-0.312500X-0.625000X0.312500X-0.625000X0*%
%ADD14RoundRect,0.250000X-0.450000X0.262500X-0.450000X-0.262500X0.450000X-0.262500X0.450000X0.262500X0*%
%ADD15RoundRect,0.250000X0.262500X0.450000X-0.262500X0.450000X-0.262500X-0.450000X0.262500X-0.450000X0*%
%ADD16RoundRect,0.250000X0.650000X-0.325000X0.650000X0.325000X-0.650000X0.325000X-0.650000X-0.325000X0*%
%ADD17C,1.750000*%
%ADD18C,3.050000*%
%ADD19C,4.000000*%
%ADD20RoundRect,0.102000X0.900000X-0.175000X0.900000X0.175000X-0.900000X0.175000X-0.900000X-0.175000X0*%
%ADD21RoundRect,0.250000X0.450000X-0.262500X0.450000X0.262500X-0.450000X0.262500X-0.450000X-0.262500X0*%
%ADD22RoundRect,0.250000X0.450000X0.350000X-0.450000X0.350000X-0.450000X-0.350000X0.450000X-0.350000X0*%
%ADD23RoundRect,0.250000X0.250000X0.475000X-0.250000X0.475000X-0.250000X-0.475000X0.250000X-0.475000X0*%
%ADD24RoundRect,0.135000X-0.185000X0.135000X-0.185000X-0.135000X0.185000X-0.135000X0.185000X0.135000X0*%
%ADD25RoundRect,0.250000X-0.650000X0.325000X-0.650000X-0.325000X0.650000X-0.325000X0.650000X0.325000X0*%
%ADD26R,1.700000X1.700000*%
%ADD27O,1.700000X1.700000*%
%ADD28RoundRect,0.050000X-0.387500X-0.050000X0.387500X-0.050000X0.387500X0.050000X-0.387500X0.050000X0*%
%ADD29RoundRect,0.050000X-0.050000X-0.387500X0.050000X-0.387500X0.050000X0.387500X-0.050000X0.387500X0*%
%ADD30R,3.200000X3.200000*%
%ADD31RoundRect,0.162500X-0.162500X0.650000X-0.162500X-0.650000X0.162500X-0.650000X0.162500X0.650000X0*%
%ADD32RoundRect,0.250000X0.625000X-0.312500X0.625000X0.312500X-0.625000X0.312500X-0.625000X-0.312500X0*%
%ADD33RoundRect,0.250000X-0.312500X-0.625000X0.312500X-0.625000X0.312500X0.625000X-0.312500X0.625000X0*%
%ADD34RoundRect,0.102000X0.650000X1.500000X-0.650000X1.500000X-0.650000X-1.500000X0.650000X-1.500000X0*%
%ADD35O,1.204000X2.904000*%
%ADD36C,1.600000*%
%ADD37RoundRect,0.102000X1.200000X1.200000X-1.200000X1.200000X-1.200000X-1.200000X1.200000X-1.200000X0*%
%ADD38C,2.604000*%
%ADD39C,2.004000*%
%ADD40RoundRect,0.250000X-0.450000X-0.350000X0.450000X-0.350000X0.450000X0.350000X-0.450000X0.350000X0*%
%ADD41C,0.650000*%
%ADD42R,0.600000X1.450000*%
%ADD43R,0.300000X1.450000*%
%ADD44O,1.000000X2.100000*%
%ADD45O,1.000000X1.600000*%
G04 APERTURE END LIST*
D10*
%TO.C,U4*%
X210502500Y-19870000D03*
D11*
X212802500Y-26170000D03*
D10*
X212802500Y-19870000D03*
X215102500Y-19870000D03*
%TD*%
D12*
%TO.C,Caps Lock*%
X267810000Y-40630000D03*
X269510000Y-40630000D03*
%TD*%
D13*
%TO.C,R6*%
X106530000Y-29160000D03*
X109455000Y-29160000D03*
%TD*%
D14*
%TO.C,R4*%
X159050000Y-39950000D03*
X159050000Y-41775000D03*
%TD*%
D15*
%TO.C,R3*%
X156920000Y-38250000D03*
X155095000Y-38250000D03*
%TD*%
D16*
%TO.C,C9*%
X199120000Y-46190000D03*
X199120000Y-43240000D03*
%TD*%
D17*
%TO.C,S47*%
X76327000Y-126450000D03*
D18*
X77597000Y-123910000D03*
D19*
X81407000Y-126450000D03*
D18*
X83947000Y-121370000D03*
D17*
X86487000Y-126450000D03*
%TD*%
%TO.C,F9*%
X195390000Y-69300000D03*
D18*
X196660000Y-66760000D03*
D19*
X200470000Y-69300000D03*
D18*
X203010000Y-64220000D03*
D17*
X205550000Y-69300000D03*
%TD*%
%TO.C,S58*%
X288258000Y-126450000D03*
D18*
X289528000Y-123910000D03*
D19*
X293338000Y-126450000D03*
D18*
X295878000Y-121370000D03*
D17*
X298418000Y-126450000D03*
%TD*%
%TO.C,Command1*%
X81090000Y-164550000D03*
D18*
X82360000Y-162010000D03*
D19*
X86170000Y-164550000D03*
D18*
X88710000Y-159470000D03*
D17*
X91250000Y-164550000D03*
%TD*%
D20*
%TO.C,GL850G1*%
X164670000Y-36439000D03*
X164670000Y-35789000D03*
X164670000Y-35139000D03*
X164670000Y-34489000D03*
X164670000Y-33839000D03*
X164670000Y-33189000D03*
X164670000Y-32539000D03*
X164670000Y-31889000D03*
X164670000Y-31239000D03*
X164670000Y-30589000D03*
X164670000Y-29939000D03*
X164670000Y-29289000D03*
X164670000Y-28639000D03*
X164670000Y-27989000D03*
X158270000Y-27989000D03*
X158270000Y-28639000D03*
X158270000Y-29289000D03*
X158270000Y-29939000D03*
X158270000Y-30589000D03*
X158270000Y-31239000D03*
X158270000Y-31889000D03*
X158270000Y-32539000D03*
X158270000Y-33189000D03*
X158270000Y-33839000D03*
X158270000Y-34489000D03*
X158270000Y-35139000D03*
X158270000Y-35789000D03*
X158270000Y-36439000D03*
%TD*%
D17*
%TO.C,S51*%
X152527000Y-126450000D03*
D18*
X153797000Y-123910000D03*
D19*
X157607000Y-126450000D03*
D18*
X160147000Y-121370000D03*
D17*
X162687000Y-126450000D03*
%TD*%
%TO.C,S55*%
X228727000Y-126450000D03*
D18*
X229997000Y-123910000D03*
D19*
X233807000Y-126450000D03*
D18*
X236347000Y-121370000D03*
D17*
X238887000Y-126450000D03*
%TD*%
%TO.C,YKey11*%
X147764000Y-107400000D03*
D18*
X149034000Y-104860000D03*
D19*
X152844000Y-107400000D03*
D18*
X155384000Y-102320000D03*
D17*
X157924000Y-107400000D03*
%TD*%
D21*
%TO.C,R1*%
X168740000Y-38585000D03*
X168740000Y-36760000D03*
%TD*%
D22*
%TO.C,Y2*%
X165120000Y-39290000D03*
X162920000Y-39290000D03*
X162920000Y-40990000D03*
X165120000Y-40990000D03*
%TD*%
D17*
%TO.C,PgUp1*%
X252541000Y-164550000D03*
D18*
X253811000Y-162010000D03*
D19*
X257621000Y-164550000D03*
D18*
X260161000Y-159470000D03*
D17*
X262701000Y-164550000D03*
%TD*%
D23*
%TO.C,C21*%
X169275000Y-43210000D03*
X167375000Y-43210000D03*
%TD*%
D17*
%TO.C,S65*%
X147766000Y-145500000D03*
D18*
X149036000Y-142960000D03*
D19*
X152846000Y-145500000D03*
D18*
X155386000Y-140420000D03*
D17*
X157926000Y-145500000D03*
%TD*%
D24*
%TO.C,R11*%
X163370000Y-47340000D03*
X163370000Y-48360000D03*
%TD*%
D17*
%TO.C,P1*%
X223964000Y-107400000D03*
D18*
X225234000Y-104860000D03*
D19*
X229044000Y-107400000D03*
D18*
X231584000Y-102320000D03*
D17*
X234124000Y-107400000D03*
%TD*%
%TO.C,S69*%
X223966000Y-145500000D03*
D18*
X225236000Y-142960000D03*
D19*
X229046000Y-145500000D03*
D18*
X231586000Y-140420000D03*
D17*
X234126000Y-145500000D03*
%TD*%
D25*
%TO.C,C26*%
X185720000Y-43240000D03*
X185720000Y-46190000D03*
%TD*%
D17*
%TO.C,9(1*%
X195390000Y-88350000D03*
D18*
X196660000Y-85810000D03*
D19*
X200470000Y-88350000D03*
D18*
X203010000Y-83270000D03*
D17*
X205550000Y-88350000D03*
%TD*%
%TO.C,5\u00251*%
X119190000Y-88350000D03*
D18*
X120460000Y-85810000D03*
D19*
X124270000Y-88350000D03*
D18*
X126810000Y-83270000D03*
D17*
X129350000Y-88350000D03*
%TD*%
D25*
%TO.C,C7*%
X182370000Y-48890000D03*
X182370000Y-51840000D03*
%TD*%
D16*
%TO.C,C12*%
X176150000Y-52710000D03*
X176150000Y-49760000D03*
%TD*%
D17*
%TO.C,1!1*%
X42990000Y-88350000D03*
D18*
X44260000Y-85810000D03*
D19*
X48070000Y-88350000D03*
D18*
X50610000Y-83270000D03*
D17*
X53150000Y-88350000D03*
%TD*%
%TO.C,S56*%
X247777000Y-126450000D03*
D18*
X249047000Y-123910000D03*
D19*
X252857000Y-126450000D03*
D18*
X255397000Y-121370000D03*
D17*
X257937000Y-126450000D03*
%TD*%
%TO.C,Q1*%
X52514000Y-107400000D03*
D18*
X53784000Y-104860000D03*
D19*
X57594000Y-107400000D03*
D18*
X60134000Y-102320000D03*
D17*
X62674000Y-107400000D03*
%TD*%
%TO.C,0)1*%
X214440000Y-88350000D03*
D18*
X215710000Y-85810000D03*
D19*
X219520000Y-88350000D03*
D18*
X222060000Y-83270000D03*
D17*
X224600000Y-88350000D03*
%TD*%
%TO.C,F12*%
X252540000Y-69300000D03*
D18*
X253810000Y-66760000D03*
D19*
X257620000Y-69300000D03*
D18*
X260160000Y-64220000D03*
D17*
X262700000Y-69300000D03*
%TD*%
%TO.C,-_1*%
X233490000Y-88350000D03*
D18*
X234760000Y-85810000D03*
D19*
X238570000Y-88350000D03*
D18*
X241110000Y-83270000D03*
D17*
X243650000Y-88350000D03*
%TD*%
%TO.C,Backspace2*%
X290640000Y-88350000D03*
D18*
X291910000Y-85810000D03*
D19*
X295720000Y-88350000D03*
D18*
X298260000Y-83270000D03*
D17*
X300800000Y-88350000D03*
%TD*%
%TO.C,RKey1*%
X109664000Y-107400000D03*
D18*
X110934000Y-104860000D03*
D19*
X114744000Y-107400000D03*
D18*
X117284000Y-102320000D03*
D17*
X119824000Y-107400000D03*
%TD*%
D16*
%TO.C,C17*%
X202470000Y-46190000D03*
X202470000Y-43240000D03*
%TD*%
D17*
%TO.C,S53*%
X190627000Y-126450000D03*
D18*
X191897000Y-123910000D03*
D19*
X195707000Y-126450000D03*
D18*
X198247000Y-121370000D03*
D17*
X200787000Y-126450000D03*
%TD*%
D25*
%TO.C,C1*%
X202470000Y-48890000D03*
X202470000Y-51840000D03*
%TD*%
D17*
%TO.C,Command2*%
X214441000Y-164550000D03*
D18*
X215711000Y-162010000D03*
D19*
X219521000Y-164550000D03*
D18*
X222061000Y-159470000D03*
D17*
X224601000Y-164550000D03*
%TD*%
%TO.C,T1*%
X128714000Y-107400000D03*
D18*
X129984000Y-104860000D03*
D19*
X133794000Y-107400000D03*
D18*
X136334000Y-102320000D03*
D17*
X138874000Y-107400000D03*
%TD*%
%TO.C,S71*%
X262066000Y-145500000D03*
D18*
X263336000Y-142960000D03*
D19*
X267146000Y-145500000D03*
D18*
X269686000Y-140420000D03*
D17*
X272226000Y-145500000D03*
%TD*%
D26*
%TO.C,J6*%
X268845000Y-51490000D03*
D27*
X268845000Y-48950000D03*
X268845000Y-46410000D03*
X268845000Y-43870000D03*
%TD*%
D25*
%TO.C,C27*%
X192420000Y-43240000D03*
X192420000Y-46190000D03*
%TD*%
D17*
%TO.C,4$1*%
X100140000Y-88350000D03*
D18*
X101410000Y-85810000D03*
D19*
X105220000Y-88350000D03*
D18*
X107760000Y-83270000D03*
D17*
X110300000Y-88350000D03*
%TD*%
%TO.C,S68*%
X204916000Y-145500000D03*
D18*
X206186000Y-142960000D03*
D19*
X209996000Y-145500000D03*
D18*
X212536000Y-140420000D03*
D17*
X215076000Y-145500000D03*
%TD*%
%TO.C,S52*%
X171577000Y-126450000D03*
D18*
X172847000Y-123910000D03*
D19*
X176657000Y-126450000D03*
D18*
X179197000Y-121370000D03*
D17*
X181737000Y-126450000D03*
%TD*%
D28*
%TO.C,U1*%
X142605000Y-43210000D03*
X142605000Y-43610000D03*
X142605000Y-44010000D03*
X142605000Y-44410000D03*
X142605000Y-44810000D03*
X142605000Y-45210000D03*
X142605000Y-45610000D03*
X142605000Y-46010000D03*
X142605000Y-46410000D03*
X142605000Y-46810000D03*
X142605000Y-47210000D03*
X142605000Y-47610000D03*
X142605000Y-48010000D03*
X142605000Y-48410000D03*
D29*
X143442500Y-49247500D03*
X143842500Y-49247500D03*
X144242500Y-49247500D03*
X144642500Y-49247500D03*
X145042500Y-49247500D03*
X145442500Y-49247500D03*
X145842500Y-49247500D03*
X146242500Y-49247500D03*
X146642500Y-49247500D03*
X147042500Y-49247500D03*
X147442500Y-49247500D03*
X147842500Y-49247500D03*
X148242500Y-49247500D03*
X148642500Y-49247500D03*
D28*
X149480000Y-48410000D03*
X149480000Y-48010000D03*
X149480000Y-47610000D03*
X149480000Y-47210000D03*
X149480000Y-46810000D03*
X149480000Y-46410000D03*
X149480000Y-46010000D03*
X149480000Y-45610000D03*
X149480000Y-45210000D03*
X149480000Y-44810000D03*
X149480000Y-44410000D03*
X149480000Y-44010000D03*
X149480000Y-43610000D03*
X149480000Y-43210000D03*
D29*
X148642500Y-42372500D03*
X148242500Y-42372500D03*
X147842500Y-42372500D03*
X147442500Y-42372500D03*
X147042500Y-42372500D03*
X146642500Y-42372500D03*
X146242500Y-42372500D03*
X145842500Y-42372500D03*
X145442500Y-42372500D03*
X145042500Y-42372500D03*
X144642500Y-42372500D03*
X144242500Y-42372500D03*
X143842500Y-42372500D03*
X143442500Y-42372500D03*
D30*
X146042500Y-45810000D03*
%TD*%
D17*
%TO.C,S54*%
X209677000Y-126450000D03*
D18*
X210947000Y-123910000D03*
D19*
X214757000Y-126450000D03*
D18*
X217297000Y-121370000D03*
D17*
X219837000Y-126450000D03*
%TD*%
D31*
%TO.C,U3*%
X131902500Y-41682500D03*
X130632500Y-41682500D03*
X129362500Y-41682500D03*
X128092500Y-41682500D03*
X128092500Y-48857500D03*
X129362500Y-48857500D03*
X130632500Y-48857500D03*
X131902500Y-48857500D03*
%TD*%
D17*
%TO.C,Space1*%
X104903000Y-164550000D03*
D18*
X106173000Y-162010000D03*
D19*
X109983000Y-164550000D03*
D18*
X112523000Y-159470000D03*
D17*
X115063000Y-164550000D03*
%TD*%
D25*
%TO.C,C6*%
X185720000Y-48890000D03*
X185720000Y-51840000D03*
%TD*%
D17*
%TO.C,F10*%
X214440000Y-69300000D03*
D18*
X215710000Y-66760000D03*
D19*
X219520000Y-69300000D03*
D18*
X222060000Y-64220000D03*
D17*
X224600000Y-69300000D03*
%TD*%
%TO.C,S63*%
X109666000Y-145500000D03*
D18*
X110936000Y-142960000D03*
D19*
X114746000Y-145500000D03*
D18*
X117286000Y-140420000D03*
D17*
X119826000Y-145500000D03*
%TD*%
%TO.C,Option1*%
X62040000Y-164550000D03*
D18*
X63310000Y-162010000D03*
D19*
X67120000Y-164550000D03*
D18*
X69660000Y-159470000D03*
D17*
X72200000Y-164550000D03*
%TD*%
D16*
%TO.C,C11*%
X172800000Y-52710000D03*
X172800000Y-49760000D03*
%TD*%
D17*
%TO.C,]}1*%
X262064000Y-107400000D03*
D18*
X263334000Y-104860000D03*
D19*
X267144000Y-107400000D03*
D18*
X269684000Y-102320000D03*
D17*
X272224000Y-107400000D03*
%TD*%
D15*
%TO.C,R9*%
X159639000Y-24892000D03*
X157814000Y-24892000D03*
%TD*%
D17*
%TO.C,S67*%
X185866000Y-145500000D03*
D18*
X187136000Y-142960000D03*
D19*
X190946000Y-145500000D03*
D18*
X193486000Y-140420000D03*
D17*
X196026000Y-145500000D03*
%TD*%
D32*
%TO.C,R17*%
X262742500Y-47492500D03*
X262742500Y-44567500D03*
%TD*%
D25*
%TO.C,C3*%
X195770000Y-48890000D03*
X195770000Y-51840000D03*
%TD*%
D33*
%TO.C,R14*%
X167440000Y-40900000D03*
X170365000Y-40900000D03*
%TD*%
D17*
%TO.C,F8*%
X176340000Y-69300000D03*
D18*
X177610000Y-66760000D03*
D19*
X181420000Y-69300000D03*
D18*
X183960000Y-64220000D03*
D17*
X186500000Y-69300000D03*
%TD*%
D32*
%TO.C,R7*%
X134340000Y-45535000D03*
X134340000Y-42610000D03*
%TD*%
D17*
%TO.C,S61*%
X71566000Y-145500000D03*
D18*
X72836000Y-142960000D03*
D19*
X76646000Y-145500000D03*
D18*
X79186000Y-140420000D03*
D17*
X81726000Y-145500000D03*
%TD*%
D32*
%TO.C,R16*%
X265542500Y-47492500D03*
X265542500Y-44567500D03*
%TD*%
D17*
%TO.C,S50*%
X133477000Y-126450000D03*
D18*
X134747000Y-123910000D03*
D19*
X138557000Y-126450000D03*
D18*
X141097000Y-121370000D03*
D17*
X143637000Y-126450000D03*
%TD*%
%TO.C,S45*%
X31083500Y-126450000D03*
D18*
X32353500Y-123910000D03*
D19*
X36163500Y-126450000D03*
D18*
X38703500Y-121370000D03*
D17*
X41243500Y-126450000D03*
%TD*%
%TO.C,Left1*%
X252541000Y-183600000D03*
D18*
X253811000Y-181060000D03*
D19*
X257621000Y-183600000D03*
D18*
X260161000Y-178520000D03*
D17*
X262701000Y-183600000D03*
%TD*%
%TO.C,Tab1*%
X28702000Y-107400000D03*
D18*
X29972000Y-104860000D03*
D19*
X33782000Y-107400000D03*
D18*
X36322000Y-102320000D03*
D17*
X38862000Y-107400000D03*
%TD*%
D25*
%TO.C,C4*%
X192420000Y-48890000D03*
X192420000Y-51840000D03*
%TD*%
D17*
%TO.C,S66*%
X166816000Y-145500000D03*
D18*
X168086000Y-142960000D03*
D19*
X171896000Y-145500000D03*
D18*
X174436000Y-140420000D03*
D17*
X176976000Y-145500000D03*
%TD*%
%TO.C,`~1*%
X23940000Y-88350000D03*
D18*
X25210000Y-85810000D03*
D19*
X29020000Y-88350000D03*
D18*
X31560000Y-83270000D03*
D17*
X34100000Y-88350000D03*
%TD*%
D32*
%TO.C,R5*%
X147430000Y-58870000D03*
X147430000Y-55945000D03*
%TD*%
D16*
%TO.C,C24*%
X100490476Y-31790000D03*
X100490476Y-28840000D03*
%TD*%
D17*
%TO.C,S62*%
X90616000Y-145500000D03*
D18*
X91886000Y-142960000D03*
D19*
X95696000Y-145500000D03*
D18*
X98236000Y-140420000D03*
D17*
X100776000Y-145500000D03*
%TD*%
%TO.C,Space3*%
X162054000Y-164550000D03*
D18*
X163324000Y-162010000D03*
D19*
X167134000Y-164550000D03*
D18*
X169674000Y-159470000D03*
D17*
X172214000Y-164550000D03*
%TD*%
D23*
%TO.C,C16*%
X151390000Y-58700000D03*
X149490000Y-58700000D03*
%TD*%
D17*
%TO.C,S49*%
X114427000Y-126450000D03*
D18*
X115697000Y-123910000D03*
D19*
X119507000Y-126450000D03*
D18*
X122047000Y-121370000D03*
D17*
X124587000Y-126450000D03*
%TD*%
%TO.C,Backspace1*%
X271590000Y-88350000D03*
D18*
X272860000Y-85810000D03*
D19*
X276670000Y-88350000D03*
D18*
X279210000Y-83270000D03*
D17*
X281750000Y-88350000D03*
%TD*%
%TO.C,S59*%
X26321000Y-145500000D03*
D18*
X27591000Y-142960000D03*
D19*
X31401000Y-145500000D03*
D18*
X33941000Y-140420000D03*
D17*
X36481000Y-145500000D03*
%TD*%
%TO.C,E1*%
X90614000Y-107400000D03*
D18*
X91884000Y-104860000D03*
D19*
X95694000Y-107400000D03*
D18*
X98234000Y-102320000D03*
D17*
X100774000Y-107400000D03*
%TD*%
D16*
%TO.C,C14*%
X182370000Y-46190000D03*
X182370000Y-43240000D03*
%TD*%
D17*
%TO.C,F3*%
X81090000Y-69300000D03*
D18*
X82360000Y-66760000D03*
D19*
X86170000Y-69300000D03*
D18*
X88710000Y-64220000D03*
D17*
X91250000Y-69300000D03*
%TD*%
D16*
%TO.C,C10*%
X169450000Y-52710000D03*
X169450000Y-49760000D03*
%TD*%
D17*
%TO.C,F11*%
X233490000Y-69300000D03*
D18*
X234760000Y-66760000D03*
D19*
X238570000Y-69300000D03*
D18*
X241110000Y-64220000D03*
D17*
X243650000Y-69300000D03*
%TD*%
%TO.C,Del1*%
X271590000Y-69300000D03*
D18*
X272860000Y-66760000D03*
D19*
X276670000Y-69300000D03*
D18*
X279210000Y-64220000D03*
D17*
X281750000Y-69300000D03*
%TD*%
%TO.C,I1*%
X185864000Y-107400000D03*
D18*
X187134000Y-104860000D03*
D19*
X190944000Y-107400000D03*
D18*
X193484000Y-102320000D03*
D17*
X196024000Y-107400000D03*
%TD*%
%TO.C,Space2*%
X133478000Y-164550000D03*
D18*
X134748000Y-162010000D03*
D19*
X138558000Y-164550000D03*
D18*
X141098000Y-159470000D03*
D17*
X143638000Y-164550000D03*
%TD*%
D34*
%TO.C,J3*%
X125960000Y-27780000D03*
X123460000Y-27780000D03*
X121460000Y-27780000D03*
X118960000Y-27780000D03*
D35*
X128860000Y-24080000D03*
X116060000Y-24080000D03*
%TD*%
D36*
%TO.C,J1*%
X146780000Y-23990000D03*
X139160000Y-18910000D03*
D37*
X139160000Y-27800000D03*
D38*
X146780000Y-28435000D03*
D39*
X142970000Y-32250000D03*
%TD*%
D17*
%TO.C,Control1*%
X42990000Y-164550000D03*
D18*
X44260000Y-162010000D03*
D19*
X48070000Y-164550000D03*
D18*
X50610000Y-159470000D03*
D17*
X53150000Y-164550000D03*
%TD*%
D36*
%TO.C,J5*%
X183780000Y-23990000D03*
X176160000Y-18910000D03*
D37*
X176160000Y-27800000D03*
D38*
X183780000Y-28435000D03*
D39*
X179970000Y-32250000D03*
%TD*%
D17*
%TO.C,7&1*%
X157290000Y-88350000D03*
D18*
X158560000Y-85810000D03*
D19*
X162370000Y-88350000D03*
D18*
X164910000Y-83270000D03*
D17*
X167450000Y-88350000D03*
%TD*%
%TO.C,F2*%
X62040000Y-69300000D03*
D18*
X63310000Y-66760000D03*
D19*
X67120000Y-69300000D03*
D18*
X69660000Y-64220000D03*
D17*
X72200000Y-69300000D03*
%TD*%
%TO.C,Option2*%
X233491000Y-164550000D03*
D18*
X234761000Y-162010000D03*
D19*
X238571000Y-164550000D03*
D18*
X241111000Y-159470000D03*
D17*
X243651000Y-164550000D03*
%TD*%
D23*
%TO.C,C20*%
X164550000Y-43480000D03*
X162650000Y-43480000D03*
%TD*%
D17*
%TO.C,8\u002A1*%
X176340000Y-88350000D03*
D18*
X177610000Y-85810000D03*
D19*
X181420000Y-88350000D03*
D18*
X183960000Y-83270000D03*
D17*
X186500000Y-88350000D03*
%TD*%
%TO.C,Down1*%
X271591000Y-183600000D03*
D18*
X272861000Y-181060000D03*
D19*
X276671000Y-183600000D03*
D18*
X279211000Y-178520000D03*
D17*
X281751000Y-183600000D03*
%TD*%
D40*
%TO.C,Y1*%
X142600000Y-55210000D03*
X144800000Y-55210000D03*
X144800000Y-53510000D03*
X142600000Y-53510000D03*
%TD*%
D17*
%TO.C,2@1*%
X62040000Y-88350000D03*
D18*
X63310000Y-85810000D03*
D19*
X67120000Y-88350000D03*
D18*
X69660000Y-83270000D03*
D17*
X72200000Y-88350000D03*
%TD*%
%TO.C,F6*%
X138240000Y-69300000D03*
D18*
X139510000Y-66760000D03*
D19*
X143320000Y-69300000D03*
D18*
X145860000Y-64220000D03*
D17*
X148400000Y-69300000D03*
%TD*%
%TO.C,S48*%
X95377000Y-126450000D03*
D18*
X96647000Y-123910000D03*
D19*
X100457000Y-126450000D03*
D18*
X102997000Y-121370000D03*
D17*
X105537000Y-126450000D03*
%TD*%
%TO.C,F1*%
X42990000Y-69300000D03*
D18*
X44260000Y-66760000D03*
D19*
X48070000Y-69300000D03*
D18*
X50610000Y-64220000D03*
D17*
X53150000Y-69300000D03*
%TD*%
%TO.C,[{1*%
X243014000Y-107400000D03*
D18*
X244284000Y-104860000D03*
D19*
X248094000Y-107400000D03*
D18*
X250634000Y-102320000D03*
D17*
X253174000Y-107400000D03*
%TD*%
%TO.C,S70*%
X243016000Y-145500000D03*
D18*
X244286000Y-142960000D03*
D19*
X248096000Y-145500000D03*
D18*
X250636000Y-140420000D03*
D17*
X253176000Y-145500000D03*
%TD*%
%TO.C,UP1*%
X271591000Y-164550000D03*
D18*
X272861000Y-162010000D03*
D19*
X276671000Y-164550000D03*
D18*
X279211000Y-159470000D03*
D17*
X281751000Y-164550000D03*
%TD*%
%TO.C,Fn1*%
X23940000Y-164550000D03*
D18*
X25210000Y-162010000D03*
D19*
X29020000Y-164550000D03*
D18*
X31560000Y-159470000D03*
D17*
X34100000Y-164550000D03*
%TD*%
D23*
%TO.C,C15*%
X151520000Y-56530000D03*
X149620000Y-56530000D03*
%TD*%
D17*
%TO.C,F5*%
X119190000Y-69300000D03*
D18*
X120460000Y-66760000D03*
D19*
X124270000Y-69300000D03*
D18*
X126810000Y-64220000D03*
D17*
X129350000Y-69300000D03*
%TD*%
%TO.C,Esc1*%
X23940000Y-69300000D03*
D18*
X25210000Y-66760000D03*
D19*
X29020000Y-69300000D03*
D18*
X31560000Y-64220000D03*
D17*
X34100000Y-69300000D03*
%TD*%
%TO.C,W1*%
X71564000Y-107400000D03*
D18*
X72834000Y-104860000D03*
D19*
X76644000Y-107400000D03*
D18*
X79184000Y-102320000D03*
D17*
X81724000Y-107400000D03*
%TD*%
D34*
%TO.C,J4*%
X203980000Y-27780000D03*
X201480000Y-27780000D03*
X199480000Y-27780000D03*
X196980000Y-27780000D03*
D35*
X206880000Y-24080000D03*
X194080000Y-24080000D03*
%TD*%
D17*
%TO.C,Space4*%
X190628000Y-164550000D03*
D18*
X191898000Y-162010000D03*
D19*
X195708000Y-164550000D03*
D18*
X198248000Y-159470000D03*
D17*
X200788000Y-164550000D03*
%TD*%
%TO.C,S72*%
X285879000Y-145500000D03*
D18*
X287149000Y-142960000D03*
D19*
X290959000Y-145500000D03*
D18*
X293499000Y-140420000D03*
D17*
X296039000Y-145500000D03*
%TD*%
D41*
%TO.C,J2*%
X164360000Y-20310000D03*
X158580000Y-20310000D03*
D42*
X164720000Y-21755000D03*
X163920000Y-21755000D03*
D43*
X162720000Y-21755000D03*
X161720000Y-21755000D03*
X161220000Y-21755000D03*
X160220000Y-21755000D03*
D42*
X159020000Y-21755000D03*
X158220000Y-21755000D03*
X158220000Y-21755000D03*
X159020000Y-21755000D03*
D43*
X159720000Y-21755000D03*
X160720000Y-21755000D03*
X162220000Y-21755000D03*
X163220000Y-21755000D03*
D42*
X163920000Y-21755000D03*
X164720000Y-21755000D03*
D44*
X165790000Y-20840000D03*
D45*
X165790000Y-16660000D03*
D44*
X157150000Y-20840000D03*
D45*
X157150000Y-16660000D03*
%TD*%
D25*
%TO.C,C2*%
X199120000Y-48890000D03*
X199120000Y-51840000D03*
%TD*%
%TO.C,C5*%
X189070000Y-48890000D03*
X189070000Y-51840000D03*
%TD*%
D17*
%TO.C,\u005C|1*%
X285878000Y-107400000D03*
D18*
X287148000Y-104860000D03*
D19*
X290958000Y-107400000D03*
D18*
X293498000Y-102320000D03*
D17*
X296038000Y-107400000D03*
%TD*%
D16*
%TO.C,C8*%
X195770000Y-46190000D03*
X195770000Y-43240000D03*
%TD*%
D17*
%TO.C,O1*%
X204804000Y-107400000D03*
D18*
X206074000Y-104860000D03*
D19*
X209884000Y-107400000D03*
D18*
X212424000Y-102320000D03*
D17*
X214964000Y-107400000D03*
%TD*%
%TO.C,3#1*%
X81090000Y-88350000D03*
D18*
X82360000Y-85810000D03*
D19*
X86170000Y-88350000D03*
D18*
X88710000Y-83270000D03*
D17*
X91250000Y-88350000D03*
%TD*%
%TO.C,S64*%
X128716000Y-145500000D03*
D18*
X129986000Y-142960000D03*
D19*
X133796000Y-145500000D03*
D18*
X136336000Y-140420000D03*
D17*
X138876000Y-145500000D03*
%TD*%
%TO.C,6^1*%
X138240000Y-88350000D03*
D18*
X139510000Y-85810000D03*
D19*
X143320000Y-88350000D03*
D18*
X145860000Y-83270000D03*
D17*
X148400000Y-88350000D03*
%TD*%
%TO.C,S60*%
X50134000Y-145500000D03*
D18*
X51404000Y-142960000D03*
D19*
X55214000Y-145500000D03*
D18*
X57754000Y-140420000D03*
D17*
X60294000Y-145500000D03*
%TD*%
%TO.C,Right1*%
X290641000Y-183600000D03*
D18*
X291911000Y-181060000D03*
D19*
X295721000Y-183600000D03*
D18*
X298261000Y-178520000D03*
D17*
X300801000Y-183600000D03*
%TD*%
%TO.C,Del2*%
X290640000Y-69300000D03*
D18*
X291910000Y-66760000D03*
D19*
X295720000Y-69300000D03*
D18*
X298260000Y-64220000D03*
D17*
X300800000Y-69300000D03*
%TD*%
%TO.C,PgDown1*%
X290641000Y-164550000D03*
D18*
X291911000Y-162010000D03*
D19*
X295721000Y-164550000D03*
D18*
X298261000Y-159470000D03*
D17*
X300801000Y-164550000D03*
%TD*%
%TO.C,F4*%
X100140000Y-69300000D03*
D18*
X101410000Y-66760000D03*
D19*
X105220000Y-69300000D03*
D18*
X107760000Y-64220000D03*
D17*
X110300000Y-69300000D03*
%TD*%
D16*
%TO.C,C23*%
X97140476Y-31790000D03*
X97140476Y-28840000D03*
%TD*%
D25*
%TO.C,C13*%
X103840476Y-28840476D03*
X103840476Y-31790476D03*
%TD*%
%TO.C,C25*%
X189070000Y-43240000D03*
X189070000Y-46190000D03*
%TD*%
D17*
%TO.C,S46*%
X57277000Y-126450000D03*
D18*
X58547000Y-123910000D03*
D19*
X62357000Y-126450000D03*
D18*
X64897000Y-121370000D03*
D17*
X67437000Y-126450000D03*
%TD*%
%TO.C,F7*%
X157290000Y-69300000D03*
D18*
X158560000Y-66760000D03*
D19*
X162370000Y-69300000D03*
D18*
X164910000Y-64220000D03*
D17*
X167450000Y-69300000D03*
%TD*%
%TO.C,=+1*%
X252540000Y-88350000D03*
D18*
X253810000Y-85810000D03*
D19*
X257620000Y-88350000D03*
D18*
X260160000Y-83270000D03*
D17*
X262700000Y-88350000D03*
%TD*%
%TO.C,UKey1*%
X166814000Y-107400000D03*
D18*
X168084000Y-104860000D03*
D19*
X171894000Y-107400000D03*
D18*
X174434000Y-102320000D03*
D17*
X176974000Y-107400000D03*
%TD*%
%TO.C,S57*%
X266827000Y-126450000D03*
D18*
X268097000Y-123910000D03*
D19*
X271907000Y-126450000D03*
D18*
X274447000Y-121370000D03*
D17*
X276987000Y-126450000D03*
%TD*%
M02*
