%TF.GenerationSoftware,KiCad,Pcbnew,9.0.7*%
%TF.CreationDate,2026-03-15T09:44:17+08:00*%
%TF.ProjectId,Modulus,4d6f6475-6c75-4732-9e6b-696361645f70,rev?*%
%TF.SameCoordinates,Original*%
%TF.FileFunction,Soldermask,Bot*%
%TF.FilePolarity,Negative*%
%FSLAX46Y46*%
G04 Gerber Fmt 4.6, Leading zero omitted, Abs format (unit mm)*
G04 Created by KiCad (PCBNEW 9.0.7) date 2026-03-15 09:44:17*
%MOMM*%
%LPD*%
G01*
G04 APERTURE LIST*
G04 Aperture macros list*
%AMRoundRect*
0 Rectangle with rounded corners*
0 $1 Rounding radius*
0 $2 $3 $4 $5 $6 $7 $8 $9 X,Y pos of 4 corners*
0 Add a 4 corners polygon primitive as box body*
4,1,4,$2,$3,$4,$5,$6,$7,$8,$9,$2,$3,0*
0 Add four circle primitives for the rounded corners*
1,1,$1+$1,$2,$3*
1,1,$1+$1,$4,$5*
1,1,$1+$1,$6,$7*
1,1,$1+$1,$8,$9*
0 Add four rect primitives between the rounded corners*
20,1,$1+$1,$2,$3,$4,$5,0*
20,1,$1+$1,$4,$5,$6,$7,0*
20,1,$1+$1,$6,$7,$8,$9,0*
20,1,$1+$1,$8,$9,$2,$3,0*%
G04 Aperture macros list end*
%ADD10C,1.750000*%
%ADD11C,3.050000*%
%ADD12C,4.000000*%
%ADD13RoundRect,0.250000X-1.025000X-1.000000X1.025000X-1.000000X1.025000X1.000000X-1.025000X1.000000X0*%
%ADD14R,1.700000X1.700000*%
%ADD15O,1.700000X1.700000*%
%ADD16O,1.204000X2.904000*%
%ADD17C,1.600000*%
%ADD18RoundRect,0.102000X1.200000X1.200000X-1.200000X1.200000X-1.200000X-1.200000X1.200000X-1.200000X0*%
%ADD19C,2.604000*%
%ADD20C,2.004000*%
%ADD21C,0.650000*%
%ADD22O,1.000000X2.100000*%
%ADD23O,1.000000X1.600000*%
%ADD24RoundRect,0.250000X0.650000X-1.000000X0.650000X1.000000X-0.650000X1.000000X-0.650000X-1.000000X0*%
%ADD25RoundRect,0.250000X-0.312500X-0.625000X0.312500X-0.625000X0.312500X0.625000X-0.312500X0.625000X0*%
%ADD26RoundRect,0.250000X-0.262500X-0.450000X0.262500X-0.450000X0.262500X0.450000X-0.262500X0.450000X0*%
%ADD27RoundRect,0.250000X0.325000X0.650000X-0.325000X0.650000X-0.325000X-0.650000X0.325000X-0.650000X0*%
%ADD28RoundRect,0.250000X0.312500X0.625000X-0.312500X0.625000X-0.312500X-0.625000X0.312500X-0.625000X0*%
G04 APERTURE END LIST*
D10*
%TO.C,S47*%
X76327000Y-126450000D03*
D11*
X77597000Y-123910000D03*
D12*
X81407000Y-126450000D03*
D11*
X83947000Y-121370000D03*
D10*
X86487000Y-126450000D03*
D13*
X74322000Y-123910000D03*
X87249000Y-121370000D03*
%TD*%
D10*
%TO.C,F9*%
X195390000Y-69300000D03*
D11*
X196660000Y-66760000D03*
D12*
X200470000Y-69300000D03*
D11*
X203010000Y-64220000D03*
D10*
X205550000Y-69300000D03*
D13*
X193385000Y-66760000D03*
X206312000Y-64220000D03*
%TD*%
D10*
%TO.C,S58*%
X288258000Y-126450000D03*
D11*
X289528000Y-123910000D03*
D12*
X293338000Y-126450000D03*
D11*
X295878000Y-121370000D03*
D10*
X298418000Y-126450000D03*
D13*
X286253000Y-123910000D03*
X299180000Y-121370000D03*
%TD*%
D10*
%TO.C,Command1*%
X81090000Y-164550000D03*
D11*
X82360000Y-162010000D03*
D12*
X86170000Y-164550000D03*
D11*
X88710000Y-159470000D03*
D10*
X91250000Y-164550000D03*
D13*
X79085000Y-162010000D03*
X92012000Y-159470000D03*
%TD*%
D10*
%TO.C,S51*%
X152527000Y-126450000D03*
D11*
X153797000Y-123910000D03*
D12*
X157607000Y-126450000D03*
D11*
X160147000Y-121370000D03*
D10*
X162687000Y-126450000D03*
D13*
X150522000Y-123910000D03*
X163449000Y-121370000D03*
%TD*%
D10*
%TO.C,S55*%
X228727000Y-126450000D03*
D11*
X229997000Y-123910000D03*
D12*
X233807000Y-126450000D03*
D11*
X236347000Y-121370000D03*
D10*
X238887000Y-126450000D03*
D13*
X226722000Y-123910000D03*
X239649000Y-121370000D03*
%TD*%
D10*
%TO.C,YKey11*%
X147764000Y-107400000D03*
D11*
X149034000Y-104860000D03*
D12*
X152844000Y-107400000D03*
D11*
X155384000Y-102320000D03*
D10*
X157924000Y-107400000D03*
D13*
X145759000Y-104860000D03*
X158686000Y-102320000D03*
%TD*%
D10*
%TO.C,PgUp1*%
X252541000Y-164550000D03*
D11*
X253811000Y-162010000D03*
D12*
X257621000Y-164550000D03*
D11*
X260161000Y-159470000D03*
D10*
X262701000Y-164550000D03*
D13*
X250536000Y-162010000D03*
X263463000Y-159470000D03*
%TD*%
D10*
%TO.C,S65*%
X147766000Y-145500000D03*
D11*
X149036000Y-142960000D03*
D12*
X152846000Y-145500000D03*
D11*
X155386000Y-140420000D03*
D10*
X157926000Y-145500000D03*
D13*
X145761000Y-142960000D03*
X158688000Y-140420000D03*
%TD*%
D10*
%TO.C,P1*%
X223964000Y-107400000D03*
D11*
X225234000Y-104860000D03*
D12*
X229044000Y-107400000D03*
D11*
X231584000Y-102320000D03*
D10*
X234124000Y-107400000D03*
D13*
X221959000Y-104860000D03*
X234886000Y-102320000D03*
%TD*%
D10*
%TO.C,S69*%
X223966000Y-145500000D03*
D11*
X225236000Y-142960000D03*
D12*
X229046000Y-145500000D03*
D11*
X231586000Y-140420000D03*
D10*
X234126000Y-145500000D03*
D13*
X221961000Y-142960000D03*
X234888000Y-140420000D03*
%TD*%
D10*
%TO.C,9(1*%
X195390000Y-88350000D03*
D11*
X196660000Y-85810000D03*
D12*
X200470000Y-88350000D03*
D11*
X203010000Y-83270000D03*
D10*
X205550000Y-88350000D03*
D13*
X193385000Y-85810000D03*
X206312000Y-83270000D03*
%TD*%
D10*
%TO.C,5\u00251*%
X119190000Y-88350000D03*
D11*
X120460000Y-85810000D03*
D12*
X124270000Y-88350000D03*
D11*
X126810000Y-83270000D03*
D10*
X129350000Y-88350000D03*
D13*
X117185000Y-85810000D03*
X130112000Y-83270000D03*
%TD*%
D10*
%TO.C,1!1*%
X42990000Y-88350000D03*
D11*
X44260000Y-85810000D03*
D12*
X48070000Y-88350000D03*
D11*
X50610000Y-83270000D03*
D10*
X53150000Y-88350000D03*
D13*
X40985000Y-85810000D03*
X53912000Y-83270000D03*
%TD*%
D10*
%TO.C,S56*%
X247777000Y-126450000D03*
D11*
X249047000Y-123910000D03*
D12*
X252857000Y-126450000D03*
D11*
X255397000Y-121370000D03*
D10*
X257937000Y-126450000D03*
D13*
X245772000Y-123910000D03*
X258699000Y-121370000D03*
%TD*%
D10*
%TO.C,Q1*%
X52514000Y-107400000D03*
D11*
X53784000Y-104860000D03*
D12*
X57594000Y-107400000D03*
D11*
X60134000Y-102320000D03*
D10*
X62674000Y-107400000D03*
D13*
X50509000Y-104860000D03*
X63436000Y-102320000D03*
%TD*%
D10*
%TO.C,0)1*%
X214440000Y-88350000D03*
D11*
X215710000Y-85810000D03*
D12*
X219520000Y-88350000D03*
D11*
X222060000Y-83270000D03*
D10*
X224600000Y-88350000D03*
D13*
X212435000Y-85810000D03*
X225362000Y-83270000D03*
%TD*%
D10*
%TO.C,F12*%
X252540000Y-69300000D03*
D11*
X253810000Y-66760000D03*
D12*
X257620000Y-69300000D03*
D11*
X260160000Y-64220000D03*
D10*
X262700000Y-69300000D03*
D13*
X250535000Y-66760000D03*
X263462000Y-64220000D03*
%TD*%
D10*
%TO.C,-_1*%
X233490000Y-88350000D03*
D11*
X234760000Y-85810000D03*
D12*
X238570000Y-88350000D03*
D11*
X241110000Y-83270000D03*
D10*
X243650000Y-88350000D03*
D13*
X231485000Y-85810000D03*
X244412000Y-83270000D03*
%TD*%
D10*
%TO.C,Backspace2*%
X290640000Y-88350000D03*
D11*
X291910000Y-85810000D03*
D12*
X295720000Y-88350000D03*
D11*
X298260000Y-83270000D03*
D10*
X300800000Y-88350000D03*
D13*
X288635000Y-85810000D03*
X301562000Y-83270000D03*
%TD*%
D10*
%TO.C,RKey1*%
X109664000Y-107400000D03*
D11*
X110934000Y-104860000D03*
D12*
X114744000Y-107400000D03*
D11*
X117284000Y-102320000D03*
D10*
X119824000Y-107400000D03*
D13*
X107659000Y-104860000D03*
X120586000Y-102320000D03*
%TD*%
D10*
%TO.C,S53*%
X190627000Y-126450000D03*
D11*
X191897000Y-123910000D03*
D12*
X195707000Y-126450000D03*
D11*
X198247000Y-121370000D03*
D10*
X200787000Y-126450000D03*
D13*
X188622000Y-123910000D03*
X201549000Y-121370000D03*
%TD*%
D10*
%TO.C,Command2*%
X214441000Y-164550000D03*
D11*
X215711000Y-162010000D03*
D12*
X219521000Y-164550000D03*
D11*
X222061000Y-159470000D03*
D10*
X224601000Y-164550000D03*
D13*
X212436000Y-162010000D03*
X225363000Y-159470000D03*
%TD*%
D10*
%TO.C,T1*%
X128714000Y-107400000D03*
D11*
X129984000Y-104860000D03*
D12*
X133794000Y-107400000D03*
D11*
X136334000Y-102320000D03*
D10*
X138874000Y-107400000D03*
D13*
X126709000Y-104860000D03*
X139636000Y-102320000D03*
%TD*%
D10*
%TO.C,S71*%
X262066000Y-145500000D03*
D11*
X263336000Y-142960000D03*
D12*
X267146000Y-145500000D03*
D11*
X269686000Y-140420000D03*
D10*
X272226000Y-145500000D03*
D13*
X260061000Y-142960000D03*
X272988000Y-140420000D03*
%TD*%
D14*
%TO.C,J6*%
X268845000Y-51490000D03*
D15*
X268845000Y-48950000D03*
X268845000Y-46410000D03*
X268845000Y-43870000D03*
%TD*%
D10*
%TO.C,4$1*%
X100140000Y-88350000D03*
D11*
X101410000Y-85810000D03*
D12*
X105220000Y-88350000D03*
D11*
X107760000Y-83270000D03*
D10*
X110300000Y-88350000D03*
D13*
X98135000Y-85810000D03*
X111062000Y-83270000D03*
%TD*%
D10*
%TO.C,S68*%
X204916000Y-145500000D03*
D11*
X206186000Y-142960000D03*
D12*
X209996000Y-145500000D03*
D11*
X212536000Y-140420000D03*
D10*
X215076000Y-145500000D03*
D13*
X202911000Y-142960000D03*
X215838000Y-140420000D03*
%TD*%
D10*
%TO.C,S52*%
X171577000Y-126450000D03*
D11*
X172847000Y-123910000D03*
D12*
X176657000Y-126450000D03*
D11*
X179197000Y-121370000D03*
D10*
X181737000Y-126450000D03*
D13*
X169572000Y-123910000D03*
X182499000Y-121370000D03*
%TD*%
D10*
%TO.C,S54*%
X209677000Y-126450000D03*
D11*
X210947000Y-123910000D03*
D12*
X214757000Y-126450000D03*
D11*
X217297000Y-121370000D03*
D10*
X219837000Y-126450000D03*
D13*
X207672000Y-123910000D03*
X220599000Y-121370000D03*
%TD*%
D10*
%TO.C,Space1*%
X104903000Y-164550000D03*
D11*
X106173000Y-162010000D03*
D12*
X109983000Y-164550000D03*
D11*
X112523000Y-159470000D03*
D10*
X115063000Y-164550000D03*
D13*
X102898000Y-162010000D03*
X115825000Y-159470000D03*
%TD*%
D10*
%TO.C,F10*%
X214440000Y-69300000D03*
D11*
X215710000Y-66760000D03*
D12*
X219520000Y-69300000D03*
D11*
X222060000Y-64220000D03*
D10*
X224600000Y-69300000D03*
D13*
X212435000Y-66760000D03*
X225362000Y-64220000D03*
%TD*%
D10*
%TO.C,S63*%
X109666000Y-145500000D03*
D11*
X110936000Y-142960000D03*
D12*
X114746000Y-145500000D03*
D11*
X117286000Y-140420000D03*
D10*
X119826000Y-145500000D03*
D13*
X107661000Y-142960000D03*
X120588000Y-140420000D03*
%TD*%
D10*
%TO.C,Option1*%
X62040000Y-164550000D03*
D11*
X63310000Y-162010000D03*
D12*
X67120000Y-164550000D03*
D11*
X69660000Y-159470000D03*
D10*
X72200000Y-164550000D03*
D13*
X60035000Y-162010000D03*
X72962000Y-159470000D03*
%TD*%
D10*
%TO.C,]}1*%
X262064000Y-107400000D03*
D11*
X263334000Y-104860000D03*
D12*
X267144000Y-107400000D03*
D11*
X269684000Y-102320000D03*
D10*
X272224000Y-107400000D03*
D13*
X260059000Y-104860000D03*
X272986000Y-102320000D03*
%TD*%
D10*
%TO.C,S67*%
X185866000Y-145500000D03*
D11*
X187136000Y-142960000D03*
D12*
X190946000Y-145500000D03*
D11*
X193486000Y-140420000D03*
D10*
X196026000Y-145500000D03*
D13*
X183861000Y-142960000D03*
X196788000Y-140420000D03*
%TD*%
D10*
%TO.C,F8*%
X176340000Y-69300000D03*
D11*
X177610000Y-66760000D03*
D12*
X181420000Y-69300000D03*
D11*
X183960000Y-64220000D03*
D10*
X186500000Y-69300000D03*
D13*
X174335000Y-66760000D03*
X187262000Y-64220000D03*
%TD*%
D10*
%TO.C,S61*%
X71566000Y-145500000D03*
D11*
X72836000Y-142960000D03*
D12*
X76646000Y-145500000D03*
D11*
X79186000Y-140420000D03*
D10*
X81726000Y-145500000D03*
D13*
X69561000Y-142960000D03*
X82488000Y-140420000D03*
%TD*%
D10*
%TO.C,S50*%
X133477000Y-126450000D03*
D11*
X134747000Y-123910000D03*
D12*
X138557000Y-126450000D03*
D11*
X141097000Y-121370000D03*
D10*
X143637000Y-126450000D03*
D13*
X131472000Y-123910000D03*
X144399000Y-121370000D03*
%TD*%
D10*
%TO.C,S45*%
X31083500Y-126450000D03*
D11*
X32353500Y-123910000D03*
D12*
X36163500Y-126450000D03*
D11*
X38703500Y-121370000D03*
D10*
X41243500Y-126450000D03*
D13*
X29078500Y-123910000D03*
X42005500Y-121370000D03*
%TD*%
D10*
%TO.C,Left1*%
X252541000Y-183600000D03*
D11*
X253811000Y-181060000D03*
D12*
X257621000Y-183600000D03*
D11*
X260161000Y-178520000D03*
D10*
X262701000Y-183600000D03*
D13*
X250536000Y-181060000D03*
X263463000Y-178520000D03*
%TD*%
D10*
%TO.C,Tab1*%
X28702000Y-107400000D03*
D11*
X29972000Y-104860000D03*
D12*
X33782000Y-107400000D03*
D11*
X36322000Y-102320000D03*
D10*
X38862000Y-107400000D03*
D13*
X26697000Y-104860000D03*
X39624000Y-102320000D03*
%TD*%
D10*
%TO.C,S66*%
X166816000Y-145500000D03*
D11*
X168086000Y-142960000D03*
D12*
X171896000Y-145500000D03*
D11*
X174436000Y-140420000D03*
D10*
X176976000Y-145500000D03*
D13*
X164811000Y-142960000D03*
X177738000Y-140420000D03*
%TD*%
D10*
%TO.C,`~1*%
X23940000Y-88350000D03*
D11*
X25210000Y-85810000D03*
D12*
X29020000Y-88350000D03*
D11*
X31560000Y-83270000D03*
D10*
X34100000Y-88350000D03*
D13*
X21935000Y-85810000D03*
X34862000Y-83270000D03*
%TD*%
D10*
%TO.C,S62*%
X90616000Y-145500000D03*
D11*
X91886000Y-142960000D03*
D12*
X95696000Y-145500000D03*
D11*
X98236000Y-140420000D03*
D10*
X100776000Y-145500000D03*
D13*
X88611000Y-142960000D03*
X101538000Y-140420000D03*
%TD*%
D10*
%TO.C,Space3*%
X162054000Y-164550000D03*
D11*
X163324000Y-162010000D03*
D12*
X167134000Y-164550000D03*
D11*
X169674000Y-159470000D03*
D10*
X172214000Y-164550000D03*
D13*
X160049000Y-162010000D03*
X172976000Y-159470000D03*
%TD*%
D10*
%TO.C,S49*%
X114427000Y-126450000D03*
D11*
X115697000Y-123910000D03*
D12*
X119507000Y-126450000D03*
D11*
X122047000Y-121370000D03*
D10*
X124587000Y-126450000D03*
D13*
X112422000Y-123910000D03*
X125349000Y-121370000D03*
%TD*%
D10*
%TO.C,Backspace1*%
X271590000Y-88350000D03*
D11*
X272860000Y-85810000D03*
D12*
X276670000Y-88350000D03*
D11*
X279210000Y-83270000D03*
D10*
X281750000Y-88350000D03*
D13*
X269585000Y-85810000D03*
X282512000Y-83270000D03*
%TD*%
D10*
%TO.C,S59*%
X26321000Y-145500000D03*
D11*
X27591000Y-142960000D03*
D12*
X31401000Y-145500000D03*
D11*
X33941000Y-140420000D03*
D10*
X36481000Y-145500000D03*
D13*
X24316000Y-142960000D03*
X37243000Y-140420000D03*
%TD*%
D10*
%TO.C,E1*%
X90614000Y-107400000D03*
D11*
X91884000Y-104860000D03*
D12*
X95694000Y-107400000D03*
D11*
X98234000Y-102320000D03*
D10*
X100774000Y-107400000D03*
D13*
X88609000Y-104860000D03*
X101536000Y-102320000D03*
%TD*%
D10*
%TO.C,F3*%
X81090000Y-69300000D03*
D11*
X82360000Y-66760000D03*
D12*
X86170000Y-69300000D03*
D11*
X88710000Y-64220000D03*
D10*
X91250000Y-69300000D03*
D13*
X79085000Y-66760000D03*
X92012000Y-64220000D03*
%TD*%
D10*
%TO.C,F11*%
X233490000Y-69300000D03*
D11*
X234760000Y-66760000D03*
D12*
X238570000Y-69300000D03*
D11*
X241110000Y-64220000D03*
D10*
X243650000Y-69300000D03*
D13*
X231485000Y-66760000D03*
X244412000Y-64220000D03*
%TD*%
D10*
%TO.C,Del1*%
X271590000Y-69300000D03*
D11*
X272860000Y-66760000D03*
D12*
X276670000Y-69300000D03*
D11*
X279210000Y-64220000D03*
D10*
X281750000Y-69300000D03*
D13*
X269585000Y-66760000D03*
X282512000Y-64220000D03*
%TD*%
D10*
%TO.C,I1*%
X185864000Y-107400000D03*
D11*
X187134000Y-104860000D03*
D12*
X190944000Y-107400000D03*
D11*
X193484000Y-102320000D03*
D10*
X196024000Y-107400000D03*
D13*
X183859000Y-104860000D03*
X196786000Y-102320000D03*
%TD*%
D10*
%TO.C,Space2*%
X133478000Y-164550000D03*
D11*
X134748000Y-162010000D03*
D12*
X138558000Y-164550000D03*
D11*
X141098000Y-159470000D03*
D10*
X143638000Y-164550000D03*
D13*
X131473000Y-162010000D03*
X144400000Y-159470000D03*
%TD*%
D16*
%TO.C,J3*%
X128860000Y-24080000D03*
X116060000Y-24080000D03*
%TD*%
D17*
%TO.C,J1*%
X146780000Y-23990000D03*
X139160000Y-18910000D03*
D18*
X139160000Y-27800000D03*
D19*
X146780000Y-28435000D03*
D20*
X142970000Y-32250000D03*
%TD*%
D10*
%TO.C,Control1*%
X42990000Y-164550000D03*
D11*
X44260000Y-162010000D03*
D12*
X48070000Y-164550000D03*
D11*
X50610000Y-159470000D03*
D10*
X53150000Y-164550000D03*
D13*
X40985000Y-162010000D03*
X53912000Y-159470000D03*
%TD*%
D17*
%TO.C,J5*%
X183780000Y-23990000D03*
X176160000Y-18910000D03*
D18*
X176160000Y-27800000D03*
D19*
X183780000Y-28435000D03*
D20*
X179970000Y-32250000D03*
%TD*%
D10*
%TO.C,7&1*%
X157290000Y-88350000D03*
D11*
X158560000Y-85810000D03*
D12*
X162370000Y-88350000D03*
D11*
X164910000Y-83270000D03*
D10*
X167450000Y-88350000D03*
D13*
X155285000Y-85810000D03*
X168212000Y-83270000D03*
%TD*%
D10*
%TO.C,F2*%
X62040000Y-69300000D03*
D11*
X63310000Y-66760000D03*
D12*
X67120000Y-69300000D03*
D11*
X69660000Y-64220000D03*
D10*
X72200000Y-69300000D03*
D13*
X60035000Y-66760000D03*
X72962000Y-64220000D03*
%TD*%
D10*
%TO.C,Option2*%
X233491000Y-164550000D03*
D11*
X234761000Y-162010000D03*
D12*
X238571000Y-164550000D03*
D11*
X241111000Y-159470000D03*
D10*
X243651000Y-164550000D03*
D13*
X231486000Y-162010000D03*
X244413000Y-159470000D03*
%TD*%
D10*
%TO.C,8\u002A1*%
X176340000Y-88350000D03*
D11*
X177610000Y-85810000D03*
D12*
X181420000Y-88350000D03*
D11*
X183960000Y-83270000D03*
D10*
X186500000Y-88350000D03*
D13*
X174335000Y-85810000D03*
X187262000Y-83270000D03*
%TD*%
D10*
%TO.C,Down1*%
X271591000Y-183600000D03*
D11*
X272861000Y-181060000D03*
D12*
X276671000Y-183600000D03*
D11*
X279211000Y-178520000D03*
D10*
X281751000Y-183600000D03*
D13*
X269586000Y-181060000D03*
X282513000Y-178520000D03*
%TD*%
D10*
%TO.C,2@1*%
X62040000Y-88350000D03*
D11*
X63310000Y-85810000D03*
D12*
X67120000Y-88350000D03*
D11*
X69660000Y-83270000D03*
D10*
X72200000Y-88350000D03*
D13*
X60035000Y-85810000D03*
X72962000Y-83270000D03*
%TD*%
D10*
%TO.C,F6*%
X138240000Y-69300000D03*
D11*
X139510000Y-66760000D03*
D12*
X143320000Y-69300000D03*
D11*
X145860000Y-64220000D03*
D10*
X148400000Y-69300000D03*
D13*
X136235000Y-66760000D03*
X149162000Y-64220000D03*
%TD*%
D10*
%TO.C,S48*%
X95377000Y-126450000D03*
D11*
X96647000Y-123910000D03*
D12*
X100457000Y-126450000D03*
D11*
X102997000Y-121370000D03*
D10*
X105537000Y-126450000D03*
D13*
X93372000Y-123910000D03*
X106299000Y-121370000D03*
%TD*%
D10*
%TO.C,F1*%
X42990000Y-69300000D03*
D11*
X44260000Y-66760000D03*
D12*
X48070000Y-69300000D03*
D11*
X50610000Y-64220000D03*
D10*
X53150000Y-69300000D03*
D13*
X40985000Y-66760000D03*
X53912000Y-64220000D03*
%TD*%
D10*
%TO.C,[{1*%
X243014000Y-107400000D03*
D11*
X244284000Y-104860000D03*
D12*
X248094000Y-107400000D03*
D11*
X250634000Y-102320000D03*
D10*
X253174000Y-107400000D03*
D13*
X241009000Y-104860000D03*
X253936000Y-102320000D03*
%TD*%
D10*
%TO.C,S70*%
X243016000Y-145500000D03*
D11*
X244286000Y-142960000D03*
D12*
X248096000Y-145500000D03*
D11*
X250636000Y-140420000D03*
D10*
X253176000Y-145500000D03*
D13*
X241011000Y-142960000D03*
X253938000Y-140420000D03*
%TD*%
D10*
%TO.C,UP1*%
X271591000Y-164550000D03*
D11*
X272861000Y-162010000D03*
D12*
X276671000Y-164550000D03*
D11*
X279211000Y-159470000D03*
D10*
X281751000Y-164550000D03*
D13*
X269586000Y-162010000D03*
X282513000Y-159470000D03*
%TD*%
D10*
%TO.C,Fn1*%
X23940000Y-164550000D03*
D11*
X25210000Y-162010000D03*
D12*
X29020000Y-164550000D03*
D11*
X31560000Y-159470000D03*
D10*
X34100000Y-164550000D03*
D13*
X21935000Y-162010000D03*
X34862000Y-159470000D03*
%TD*%
D10*
%TO.C,F5*%
X119190000Y-69300000D03*
D11*
X120460000Y-66760000D03*
D12*
X124270000Y-69300000D03*
D11*
X126810000Y-64220000D03*
D10*
X129350000Y-69300000D03*
D13*
X117185000Y-66760000D03*
X130112000Y-64220000D03*
%TD*%
D10*
%TO.C,Esc1*%
X23940000Y-69300000D03*
D11*
X25210000Y-66760000D03*
D12*
X29020000Y-69300000D03*
D11*
X31560000Y-64220000D03*
D10*
X34100000Y-69300000D03*
D13*
X21935000Y-66760000D03*
X34862000Y-64220000D03*
%TD*%
D10*
%TO.C,W1*%
X71564000Y-107400000D03*
D11*
X72834000Y-104860000D03*
D12*
X76644000Y-107400000D03*
D11*
X79184000Y-102320000D03*
D10*
X81724000Y-107400000D03*
D13*
X69559000Y-104860000D03*
X82486000Y-102320000D03*
%TD*%
D16*
%TO.C,J4*%
X206880000Y-24080000D03*
X194080000Y-24080000D03*
%TD*%
D10*
%TO.C,Space4*%
X190628000Y-164550000D03*
D11*
X191898000Y-162010000D03*
D12*
X195708000Y-164550000D03*
D11*
X198248000Y-159470000D03*
D10*
X200788000Y-164550000D03*
D13*
X188623000Y-162010000D03*
X201550000Y-159470000D03*
%TD*%
D10*
%TO.C,S72*%
X285879000Y-145500000D03*
D11*
X287149000Y-142960000D03*
D12*
X290959000Y-145500000D03*
D11*
X293499000Y-140420000D03*
D10*
X296039000Y-145500000D03*
D13*
X283874000Y-142960000D03*
X296801000Y-140420000D03*
%TD*%
D21*
%TO.C,J2*%
X164360000Y-20310000D03*
X158580000Y-20310000D03*
D22*
X165790000Y-20840000D03*
D23*
X165790000Y-16660000D03*
D22*
X157150000Y-20840000D03*
D23*
X157150000Y-16660000D03*
%TD*%
D10*
%TO.C,\u005C|1*%
X285878000Y-107400000D03*
D11*
X287148000Y-104860000D03*
D12*
X290958000Y-107400000D03*
D11*
X293498000Y-102320000D03*
D10*
X296038000Y-107400000D03*
D13*
X283873000Y-104860000D03*
X296800000Y-102320000D03*
%TD*%
D10*
%TO.C,O1*%
X204804000Y-107400000D03*
D11*
X206074000Y-104860000D03*
D12*
X209884000Y-107400000D03*
D11*
X212424000Y-102320000D03*
D10*
X214964000Y-107400000D03*
D13*
X202799000Y-104860000D03*
X215726000Y-102320000D03*
%TD*%
D10*
%TO.C,3#1*%
X81090000Y-88350000D03*
D11*
X82360000Y-85810000D03*
D12*
X86170000Y-88350000D03*
D11*
X88710000Y-83270000D03*
D10*
X91250000Y-88350000D03*
D13*
X79085000Y-85810000D03*
X92012000Y-83270000D03*
%TD*%
D10*
%TO.C,S64*%
X128716000Y-145500000D03*
D11*
X129986000Y-142960000D03*
D12*
X133796000Y-145500000D03*
D11*
X136336000Y-140420000D03*
D10*
X138876000Y-145500000D03*
D13*
X126711000Y-142960000D03*
X139638000Y-140420000D03*
%TD*%
D10*
%TO.C,6^1*%
X138240000Y-88350000D03*
D11*
X139510000Y-85810000D03*
D12*
X143320000Y-88350000D03*
D11*
X145860000Y-83270000D03*
D10*
X148400000Y-88350000D03*
D13*
X136235000Y-85810000D03*
X149162000Y-83270000D03*
%TD*%
D10*
%TO.C,S60*%
X50134000Y-145500000D03*
D11*
X51404000Y-142960000D03*
D12*
X55214000Y-145500000D03*
D11*
X57754000Y-140420000D03*
D10*
X60294000Y-145500000D03*
D13*
X48129000Y-142960000D03*
X61056000Y-140420000D03*
%TD*%
D10*
%TO.C,Right1*%
X290641000Y-183600000D03*
D11*
X291911000Y-181060000D03*
D12*
X295721000Y-183600000D03*
D11*
X298261000Y-178520000D03*
D10*
X300801000Y-183600000D03*
D13*
X288636000Y-181060000D03*
X301563000Y-178520000D03*
%TD*%
D10*
%TO.C,Del2*%
X290640000Y-69300000D03*
D11*
X291910000Y-66760000D03*
D12*
X295720000Y-69300000D03*
D11*
X298260000Y-64220000D03*
D10*
X300800000Y-69300000D03*
D13*
X288635000Y-66760000D03*
X301562000Y-64220000D03*
%TD*%
D10*
%TO.C,PgDown1*%
X290641000Y-164550000D03*
D11*
X291911000Y-162010000D03*
D12*
X295721000Y-164550000D03*
D11*
X298261000Y-159470000D03*
D10*
X300801000Y-164550000D03*
D13*
X288636000Y-162010000D03*
X301563000Y-159470000D03*
%TD*%
D10*
%TO.C,F4*%
X100140000Y-69300000D03*
D11*
X101410000Y-66760000D03*
D12*
X105220000Y-69300000D03*
D11*
X107760000Y-64220000D03*
D10*
X110300000Y-69300000D03*
D13*
X98135000Y-66760000D03*
X111062000Y-64220000D03*
%TD*%
D10*
%TO.C,S46*%
X57277000Y-126450000D03*
D11*
X58547000Y-123910000D03*
D12*
X62357000Y-126450000D03*
D11*
X64897000Y-121370000D03*
D10*
X67437000Y-126450000D03*
D13*
X55272000Y-123910000D03*
X68199000Y-121370000D03*
%TD*%
D10*
%TO.C,F7*%
X157290000Y-69300000D03*
D11*
X158560000Y-66760000D03*
D12*
X162370000Y-69300000D03*
D11*
X164910000Y-64220000D03*
D10*
X167450000Y-69300000D03*
D13*
X155285000Y-66760000D03*
X168212000Y-64220000D03*
%TD*%
D10*
%TO.C,=+1*%
X252540000Y-88350000D03*
D11*
X253810000Y-85810000D03*
D12*
X257620000Y-88350000D03*
D11*
X260160000Y-83270000D03*
D10*
X262700000Y-88350000D03*
D13*
X250535000Y-85810000D03*
X263462000Y-83270000D03*
%TD*%
D10*
%TO.C,UKey1*%
X166814000Y-107400000D03*
D11*
X168084000Y-104860000D03*
D12*
X171894000Y-107400000D03*
D11*
X174434000Y-102320000D03*
D10*
X176974000Y-107400000D03*
D13*
X164809000Y-104860000D03*
X177736000Y-102320000D03*
%TD*%
D10*
%TO.C,S57*%
X266827000Y-126450000D03*
D11*
X268097000Y-123910000D03*
D12*
X271907000Y-126450000D03*
D11*
X274447000Y-121370000D03*
D10*
X276987000Y-126450000D03*
D13*
X264822000Y-123910000D03*
X277749000Y-121370000D03*
%TD*%
D24*
%TO.C,D62*%
X103090000Y-153245000D03*
X103090000Y-149245000D03*
%TD*%
%TO.C,F3D1*%
X93500000Y-77000000D03*
X93500000Y-73000000D03*
%TD*%
%TO.C,F11D1*%
X245900000Y-77000000D03*
X245900000Y-73000000D03*
%TD*%
%TO.C,F9D1*%
X207800000Y-77000000D03*
X207800000Y-73000000D03*
%TD*%
%TO.C,D72*%
X298590000Y-153245000D03*
X298590000Y-149245000D03*
%TD*%
%TO.C,D71*%
X274540000Y-153245000D03*
X274540000Y-149245000D03*
%TD*%
%TO.C,D56*%
X259980000Y-134195000D03*
X259980000Y-130195000D03*
%TD*%
%TO.C,D40*%
X217850000Y-115100000D03*
X217850000Y-111100000D03*
%TD*%
%TO.C,D33*%
X84500000Y-115100000D03*
X84500000Y-111100000D03*
%TD*%
%TO.C,9(D1*%
X207800000Y-96250000D03*
X207800000Y-92250000D03*
%TD*%
%TO.C,F6D1*%
X150650000Y-77000000D03*
X150650000Y-73000000D03*
%TD*%
%TO.C,5\u0025D1*%
X131600000Y-96250000D03*
X131600000Y-92250000D03*
%TD*%
%TO.C,D61*%
X84040000Y-153200000D03*
X84040000Y-149200000D03*
%TD*%
%TO.C,D43*%
X274100000Y-115100000D03*
X274100000Y-111100000D03*
%TD*%
%TO.C,D89*%
X302950000Y-191300000D03*
X302950000Y-187300000D03*
%TD*%
%TO.C,DelD1*%
X284000000Y-77000000D03*
X284000000Y-73000000D03*
%TD*%
%TO.C,D79*%
X175650000Y-172295000D03*
X175650000Y-168295000D03*
%TD*%
%TO.C,D37*%
X160700000Y-115100000D03*
X160700000Y-111100000D03*
%TD*%
%TO.C,D70*%
X255490000Y-153245000D03*
X255490000Y-149245000D03*
%TD*%
%TO.C,D42*%
X255950000Y-115100000D03*
X255950000Y-111100000D03*
%TD*%
%TO.C,D81*%
X226750000Y-172295000D03*
X226750000Y-168295000D03*
%TD*%
%TO.C,D77*%
X117550000Y-172295000D03*
X117550000Y-168295000D03*
%TD*%
%TO.C,D39*%
X198800000Y-115100000D03*
X198800000Y-111100000D03*
%TD*%
%TO.C,D78*%
X146600000Y-172295000D03*
X146600000Y-168295000D03*
%TD*%
%TO.C,D73*%
X36350000Y-172295000D03*
X36350000Y-168295000D03*
%TD*%
%TO.C,F10D1*%
X226850000Y-77000000D03*
X226850000Y-73000000D03*
%TD*%
%TO.C,D38*%
X179750000Y-115100000D03*
X179750000Y-111100000D03*
%TD*%
%TO.C,D55*%
X240930000Y-134195000D03*
X240930000Y-130195000D03*
%TD*%
%TO.C,D57*%
X279030000Y-134195000D03*
X279030000Y-130195000D03*
%TD*%
%TO.C,D69*%
X236440000Y-153245000D03*
X236440000Y-149245000D03*
%TD*%
%TO.C,D49*%
X126630000Y-134150000D03*
X126630000Y-130150000D03*
%TD*%
D25*
%TO.C,R12*%
X151892000Y-33401000D03*
X154817000Y-33401000D03*
%TD*%
D24*
%TO.C,-_D1*%
X245900000Y-96250000D03*
X245900000Y-92250000D03*
%TD*%
D26*
%TO.C,R13*%
X153055000Y-30750000D03*
X154880000Y-30750000D03*
%TD*%
D24*
%TO.C,D63*%
X122140000Y-153245000D03*
X122140000Y-149245000D03*
%TD*%
%TO.C,D74*%
X55400000Y-172295000D03*
X55400000Y-168295000D03*
%TD*%
%TO.C,DelD2*%
X303050000Y-77000000D03*
X303050000Y-73000000D03*
%TD*%
%TO.C,EscD1*%
X36350000Y-77000000D03*
X36350000Y-73000000D03*
%TD*%
%TO.C,D41*%
X236900000Y-115100000D03*
X236900000Y-111100000D03*
%TD*%
%TO.C,D86*%
X302950000Y-172295000D03*
X302950000Y-168295000D03*
%TD*%
%TO.C,F2D1*%
X74450000Y-77000000D03*
X74450000Y-73000000D03*
%TD*%
%TO.C,F1D1*%
X55400000Y-77000000D03*
X55400000Y-73000000D03*
%TD*%
%TO.C,D80*%
X204700000Y-172295000D03*
X204700000Y-168295000D03*
%TD*%
%TO.C,D45*%
X46780000Y-134150000D03*
X46780000Y-130150000D03*
%TD*%
%TO.C,`~D1*%
X36350000Y-96050000D03*
X36350000Y-92050000D03*
%TD*%
%TO.C,F7D1*%
X169700000Y-77000000D03*
X169700000Y-73000000D03*
%TD*%
%TO.C,D52*%
X183780000Y-134150000D03*
X183780000Y-130150000D03*
%TD*%
%TO.C,8\u002AD1*%
X188750000Y-96250000D03*
X188750000Y-92250000D03*
%TD*%
%TO.C,D66*%
X179290000Y-153245000D03*
X179290000Y-149245000D03*
%TD*%
%TO.C,D65*%
X160240000Y-153245000D03*
X160240000Y-149245000D03*
%TD*%
%TO.C,D82*%
X245800000Y-172295000D03*
X245800000Y-168295000D03*
%TD*%
%TO.C,F8D1*%
X188750000Y-77000000D03*
X188750000Y-73000000D03*
%TD*%
D27*
%TO.C,C22*%
X173070000Y-32800000D03*
X170120000Y-32800000D03*
%TD*%
D24*
%TO.C,D34*%
X103550000Y-115100000D03*
X103550000Y-111100000D03*
%TD*%
%TO.C,7&D1*%
X169700000Y-96250000D03*
X169700000Y-92250000D03*
%TD*%
%TO.C,4$D1*%
X112550000Y-96250000D03*
X112550000Y-92250000D03*
%TD*%
%TO.C,D54*%
X221880000Y-134195000D03*
X221880000Y-130195000D03*
%TD*%
%TO.C,D68*%
X217390000Y-153245000D03*
X217390000Y-149245000D03*
%TD*%
%TO.C,0)D1*%
X226850000Y-96250000D03*
X226850000Y-92250000D03*
%TD*%
%TO.C,D50*%
X145680000Y-134150000D03*
X145680000Y-130150000D03*
%TD*%
%TO.C,D58*%
X302080000Y-134195000D03*
X302080000Y-130195000D03*
%TD*%
%TO.C,D32*%
X65450000Y-115100000D03*
X65450000Y-111100000D03*
%TD*%
%TO.C,D88*%
X283900000Y-191300000D03*
X283900000Y-187300000D03*
%TD*%
%TO.C,D36*%
X141650000Y-115100000D03*
X141650000Y-111100000D03*
%TD*%
%TO.C,1!D1*%
X55400000Y-96050000D03*
X55400000Y-92050000D03*
%TD*%
%TO.C,D51*%
X164730000Y-134150000D03*
X164730000Y-130150000D03*
%TD*%
%TO.C,BackspaceD1*%
X284000000Y-96250000D03*
X284000000Y-92250000D03*
%TD*%
%TO.C,D35*%
X122600000Y-115100000D03*
X122600000Y-111100000D03*
%TD*%
%TO.C,D46*%
X69480000Y-134150000D03*
X69480000Y-130150000D03*
%TD*%
%TO.C,D67*%
X198340000Y-153245000D03*
X198340000Y-149245000D03*
%TD*%
%TO.C,F5D1*%
X131600000Y-77000000D03*
X131600000Y-73000000D03*
%TD*%
%TO.C,D44*%
X299150000Y-115100000D03*
X299150000Y-111100000D03*
%TD*%
%TO.C,D48*%
X107580000Y-134150000D03*
X107580000Y-130150000D03*
%TD*%
D26*
%TO.C,R8*%
X162640000Y-24892000D03*
X164465000Y-24892000D03*
%TD*%
D24*
%TO.C,BackspaceD2*%
X303050000Y-96250000D03*
X303050000Y-92250000D03*
%TD*%
%TO.C,D75*%
X74450000Y-172295000D03*
X74450000Y-168295000D03*
%TD*%
%TO.C,D76*%
X93500000Y-172295000D03*
X93500000Y-168295000D03*
%TD*%
%TO.C,D59*%
X41120000Y-153200000D03*
X41120000Y-149200000D03*
%TD*%
%TO.C,F4D1*%
X112550000Y-77000000D03*
X112550000Y-73000000D03*
%TD*%
%TO.C,D47*%
X88530000Y-134150000D03*
X88530000Y-130150000D03*
%TD*%
%TO.C,D87*%
X264850000Y-191300000D03*
X264850000Y-187300000D03*
%TD*%
D28*
%TO.C,R15*%
X173050000Y-29000000D03*
X170125000Y-29000000D03*
%TD*%
D24*
%TO.C,D31*%
X43460000Y-115100000D03*
X43460000Y-111100000D03*
%TD*%
%TO.C,2@D1*%
X74450000Y-96050000D03*
X74450000Y-92050000D03*
%TD*%
%TO.C,=+D1*%
X264950000Y-96250000D03*
X264950000Y-92250000D03*
%TD*%
%TO.C,D64*%
X141190000Y-153245000D03*
X141190000Y-149245000D03*
%TD*%
%TO.C,F12D1*%
X264950000Y-77000000D03*
X264950000Y-73000000D03*
%TD*%
%TO.C,D53*%
X202830000Y-134195000D03*
X202830000Y-130195000D03*
%TD*%
%TO.C,D85*%
X283900000Y-172295000D03*
X283900000Y-168295000D03*
%TD*%
%TO.C,6^D1*%
X150650000Y-96250000D03*
X150650000Y-92250000D03*
%TD*%
%TO.C,D84*%
X264850000Y-172295000D03*
X264850000Y-168295000D03*
%TD*%
%TO.C,3#D1*%
X93500000Y-96250000D03*
X93500000Y-92250000D03*
%TD*%
%TO.C,D60*%
X63140000Y-153200000D03*
X63140000Y-149200000D03*
%TD*%
M02*
